<svg width="324" height="108" viewBox="0 0 324 108" fill="none" xmlns="http://www.w3.org/2000/svg">
<line y1="2.32812" x2="324" y2="2.32812" stroke="#2A2A2A" stroke-width="3.5" stroke-dasharray="24 24"/>
<path d="M16.1824 30.2748L16.835 90.2219L27.5872 90.1408L26.9346 30.1937L16.1824 30.2748Z" fill="#151515"/>
<path d="M31.5701 30.1586L32.2227 90.1057L34.9573 90.0851L34.3048 30.138L31.5701 30.1586Z" fill="#151515"/>
<path d="M37.3738 30.1149L38.0264 90.062L40.761 90.0414L40.1085 30.0943L37.3738 30.1149Z" fill="#151515"/>
<path d="M41.1746 30.0861L41.8271 90.0332L48.5706 89.9823L47.9181 30.0352L41.1746 30.0861Z" fill="#151515"/>
<path d="M49.8406 30.0207L50.4932 89.9678L51.5214 89.96L50.8689 30.0129L49.8406 30.0207Z" fill="#151515"/>
<path d="M131.842 29.4018L132.494 89.3489L133.522 89.3411L132.87 29.394L131.842 29.4018Z" fill="#151515"/>
<path d="M154.956 29.2272L155.608 89.1743L156.637 89.1666L155.984 29.2195L154.956 29.2272Z" fill="#151515"/>
<path d="M180.924 29.0312L181.576 88.9783L182.605 88.9705L181.952 29.0234L180.924 29.0312Z" fill="#151515"/>
<path d="M183.331 29.0131L183.983 88.9602L185.012 88.9524L184.359 29.0054L183.331 29.0131Z" fill="#151515"/>
<path d="M54.7881 29.9835L55.4407 89.9305L58.1753 89.9099L57.5228 29.9628L54.7881 29.9835Z" fill="#151515"/>
<path d="M60.5926 29.9396L61.2452 89.8867L62.6087 89.8764L61.9562 29.9293L60.5926 29.9396Z" fill="#151515"/>
<path d="M63.364 29.9189L64.0166 89.866L65.3802 89.8557L64.7276 29.9086L63.364 29.9189Z" fill="#151515"/>
<path d="M66.4051 29.8959L67.0576 89.843L69.7923 89.8224L69.1397 29.8753L66.4051 29.8959Z" fill="#151515"/>
<path d="M70.533 29.8644L71.1855 89.8115L77.2733 89.7656L76.6207 29.8185L70.533 29.8644Z" fill="#151515"/>
<path d="M77.9617 29.8085L78.6143 89.7556L80.0822 89.7445L79.4297 29.7974L77.9617 29.8085Z" fill="#151515"/>
<path d="M83.8182 29.7641L84.4707 89.7112L87.2054 89.6905L86.5528 29.7435L83.8182 29.7641Z" fill="#151515"/>
<path d="M88.0358 29.7325L88.6884 89.6796L91.4231 89.6589L90.7705 29.7118L88.0358 29.7325Z" fill="#151515"/>
<path d="M94.0486 29.6872L94.7012 89.6343L100.2 89.5928L99.5477 29.6457L94.0486 29.6872Z" fill="#151515"/>
<path d="M101.232 29.633L101.885 89.5801L104.619 89.5594L103.967 29.6123L101.232 29.633Z" fill="#151515"/>
<path d="M107.044 29.5888L107.696 89.5359L110.431 89.5152L109.778 29.5682L107.044 29.5888Z" fill="#151515"/>
<path d="M114.831 29.5302L115.483 89.4773L118.218 89.4567L117.566 29.5096L114.831 29.5302Z" fill="#151515"/>
<path d="M118.653 29.5013L119.306 89.4484L122.04 89.4277L121.388 29.4806L118.653 29.5013Z" fill="#151515"/>
<path d="M124.458 29.4575L125.11 89.4045L127.845 89.3839L127.192 29.4368L124.458 29.4575Z" fill="#151515"/>
<path d="M135.322 29.3754L135.975 89.3225L140.199 89.2906L139.547 29.3435L135.322 29.3754Z" fill="#151515"/>
<path d="M141.872 29.3261L142.524 89.2732L145.259 89.2525L144.607 29.3055L141.872 29.3261Z" fill="#151515"/>
<path d="M147.684 29.2822L148.336 89.2292L151.071 89.2086L150.418 29.2615L147.684 29.2822Z" fill="#151515"/>
<path d="M157.967 29.2045L158.619 89.1516L164.006 89.1109L163.354 29.1639L157.967 29.2045Z" fill="#151515"/>
<path d="M165.097 29.1508L165.75 89.0979L168.485 89.0773L167.832 29.1302L165.097 29.1508Z" fill="#151515"/>
<path d="M170.901 29.1069L171.554 89.054L174.288 89.0333L173.636 29.0862L170.901 29.1069Z" fill="#151515"/>
<path d="M174.3 29.0812L174.952 89.0283L177.687 89.0077L177.034 29.0606L174.3 29.0812Z" fill="#151515"/>
<path d="M188.323 28.9753L188.976 88.9224L191.71 88.9017L191.058 28.9546L188.323 28.9753Z" fill="#151515"/>
<path d="M194.128 28.9317L194.78 88.8788L197.515 88.8581L196.862 28.9111L194.128 28.9317Z" fill="#151515"/>
<path d="M199.881 28.8884L200.533 88.8354L202.001 88.8244L201.349 28.8773L199.881 28.8884Z" fill="#151515"/>
<path d="M205.684 28.8444L206.337 88.7915L207.805 88.7804L207.152 28.8333L205.684 28.8444Z" fill="#151515"/>
<path d="M210.767 28.8058L211.419 88.7529L215.704 88.7206L215.051 28.7735L210.767 28.8058Z" fill="#151515"/>
<path d="M215.848 28.7676L216.501 88.7147L222.238 88.6714L221.586 28.7243L215.848 28.7676Z" fill="#151515"/>
<path d="M228.955 28.6685L229.608 88.6156L232.342 88.595L231.69 28.6479L228.955 28.6685Z" fill="#151515"/>
<path d="M234.767 28.6247L235.42 88.5718L238.154 88.5511L237.502 28.604L234.767 28.6247Z" fill="#151515"/>
<path d="M241.935 28.5707L242.588 88.5178L243.951 88.5075L243.299 28.5604L241.935 28.5707Z" fill="#151515"/>
<path d="M226.407 28.6879L227.06 88.635L228.423 88.6247L227.771 28.6776L226.407 28.6879Z" fill="#151515"/>
<path d="M255.974 28.4648L256.626 88.4119L257.99 88.4016L257.337 28.4545L255.974 28.4648Z" fill="#151515"/>
<path d="M244.7 28.55L245.353 88.4971L251.44 88.4511L250.788 28.504L244.7 28.55Z" fill="#151515"/>
<path d="M252.181 28.4933L252.833 88.4404L254.197 88.4301L253.544 28.4831L252.181 28.4933Z" fill="#151515"/>
<path d="M263.79 28.4057L264.443 88.3528L267.177 88.3321L266.525 28.3851L263.79 28.4057Z" fill="#151515"/>
<path d="M269.595 28.3619L270.247 88.309L272.982 88.2883L272.329 28.3412L269.595 28.3619Z" fill="#151515"/>
<path d="M275.406 28.3181L276.059 88.2651L278.793 88.2445L278.141 28.2974L275.406 28.3181Z" fill="#151515"/>
<path d="M281.822 28.2697L282.475 88.2168L290.202 88.1585L289.549 28.2114L281.822 28.2697Z" fill="#151515"/>
<path d="M292.82 28.1867L293.473 88.1338L296.207 88.1131L295.555 28.1661L292.82 28.1867Z" fill="#151515"/>
<path d="M298.625 28.1427L299.461 104.924L302.196 104.903L301.36 28.122L298.625 28.1427Z" fill="#151515"/>
<path d="M304.43 28.099L305.266 104.88L308 104.86L307.164 28.0783L304.43 28.099Z" fill="#151515"/>
<path d="M16.1242 107.063L16.1141 106.132L17.5322 104.967C20.945 102.211 22.4791 100.754 22.4831 99.0657C22.4707 97.9239 21.7961 96.8803 19.7843 96.8955C18.7314 96.9352 17.7271 97.2759 16.9406 97.8602L16.3479 96.7973C17.4114 96.0528 18.7538 95.6409 20.1431 95.633C23.0417 95.6111 24.2817 97.2587 24.2991 98.8596C24.3217 100.932 22.5439 102.596 19.7299 104.913L18.6585 105.747L18.6589 105.784L24.6945 105.739L24.708 106.98L16.1242 107.063Z" fill="#151515"/>
<path d="M35.2401 105.175C36.1482 105.615 37.1778 105.851 38.2283 105.86C40.568 105.842 41.2772 104.596 41.2447 103.665C41.2277 102.095 39.4991 101.438 37.7406 101.452L36.7272 101.459L36.7148 100.317L37.7281 100.31C39.0545 100.3 40.7024 99.7164 40.688 98.3886C40.6783 97.495 39.9916 96.7059 38.3076 96.7186C37.343 96.7492 36.4104 97.0152 35.6258 97.4835L35.1369 96.3826C36.1787 95.8059 37.401 95.4968 38.652 95.4935C41.2972 95.4736 42.5186 96.7737 42.5334 98.1388C42.546 99.293 41.7221 100.28 40.0733 100.795C40.9013 100.895 41.6594 101.237 42.2115 101.761C42.7635 102.284 43.0732 102.955 43.0852 103.651C43.1047 105.445 41.4453 107.027 38.2114 107.052C36.9864 107.073 35.7771 106.82 34.7086 106.321L35.2401 105.175Z" fill="#151515"/>
<path d="M61.1096 96.5837C60.6507 96.57 60.1915 96.5963 59.7393 96.6623C58.5412 96.8102 57.436 97.2851 56.597 98.0124C55.758 98.7398 55.2326 99.6785 55.1032 100.681L55.1702 100.681C55.5482 100.266 56.0376 99.9299 56.5993 99.7004C57.161 99.471 57.7793 99.3542 58.4049 99.3594C60.7893 99.3414 62.4815 100.762 62.5054 102.952C62.5277 105.006 60.8718 106.912 58.0775 106.933C55.2833 106.954 53.2959 105.107 53.2642 102.197C53.2166 101.271 53.3886 100.346 53.7704 99.4754C54.1522 98.6047 54.7362 97.8052 55.4892 97.1226C56.6551 96.18 58.1634 95.586 59.778 95.4333C60.2164 95.3749 60.6596 95.3446 61.1035 95.3426L61.1096 96.5837ZM60.6584 103.053C60.6409 101.446 59.535 100.493 57.8585 100.505C57.3142 100.519 56.7848 100.656 56.3277 100.902C55.8706 101.149 55.5032 101.495 55.2655 101.903C55.1251 102.107 55.0555 102.339 55.0642 102.574C55.0845 104.436 56.1572 105.774 58.0797 105.76C59.6295 105.748 60.6684 104.654 60.6509 103.053L60.6584 103.053Z" fill="#151515"/>
<path d="M72.0302 103.793C72.0148 102.378 73.0173 101.371 74.6726 100.775L74.672 100.72C74.0622 100.529 73.5328 100.194 73.1492 99.756C72.7656 99.3177 72.5448 98.7954 72.5139 98.2537C72.4945 96.4729 74.2772 95.2555 76.6392 95.2377C79.2472 95.218 80.5734 96.567 80.5886 97.9632C80.5814 98.537 80.3671 99.0958 79.9736 99.5669C79.58 100.038 79.0254 100.4 78.3818 100.605L78.3823 100.654C80.0649 101.194 81.1114 102.173 81.1262 103.532C81.1474 105.48 79.1572 106.804 76.5865 106.824C73.7621 106.814 72.0481 105.431 72.0302 103.793ZM79.2796 103.67C79.2648 102.311 78.1176 101.662 76.2724 101.241C74.7044 101.638 73.8642 102.501 73.8759 103.574C73.8673 103.867 73.9332 104.158 74.0694 104.427C74.2056 104.697 74.409 104.94 74.666 105.14C74.923 105.34 75.2279 105.492 75.5607 105.586C75.8934 105.681 76.2465 105.716 76.5965 105.688C78.2433 105.676 79.2922 104.824 79.2796 103.67ZM74.2041 98.123C74.2163 99.2462 75.2362 99.8404 76.7973 100.17C77.357 100.058 77.8578 99.7977 78.2236 99.4276C78.5894 99.0575 78.8003 98.5981 78.8242 98.1192C78.8366 97.8698 78.7845 97.621 78.6715 97.3898C78.5584 97.1586 78.3871 96.9502 78.169 96.7789C77.951 96.6076 77.6914 96.4773 77.4076 96.3967C77.1238 96.3162 76.8225 96.2873 76.5242 96.3121C76.2273 96.291 75.9284 96.3218 75.6466 96.4025C75.3649 96.4833 75.1065 96.6121 74.888 96.7809C74.6695 96.9496 74.4958 97.1545 74.378 97.3825C74.2601 97.6104 74.2009 97.8563 74.2039 98.1044L74.2041 98.123Z" fill="#151515"/>
<path d="M103.395 106.404L103.384 105.473L104.803 104.308C108.208 101.552 109.749 100.095 109.746 98.4068C109.78 98.1085 109.733 97.8078 109.608 97.5268C109.484 97.2457 109.285 96.9916 109.026 96.7832C108.768 96.5749 108.456 96.4175 108.115 96.3229C107.774 96.2283 107.411 96.1987 107.055 96.2365C106 96.2773 104.993 96.6178 104.203 97.2013L103.618 96.1384C104.679 95.3906 106.023 94.9783 107.413 94.9741C110.312 94.9522 111.552 96.5997 111.569 98.2006C111.592 100.273 109.807 101.937 106.993 104.255L105.929 105.088L105.929 105.125L111.972 105.08L111.986 106.321L103.395 106.404Z" fill="#151515"/>
<path d="M122.511 104.516C123.419 104.956 124.448 105.192 125.499 105.201C127.839 105.184 128.555 103.937 128.523 103.006C128.506 101.437 126.777 100.779 125.019 100.793L124.005 100.8L123.993 99.6587L125.006 99.651C126.332 99.641 127.98 99.0576 127.966 97.7298C127.956 96.8362 127.262 96.0472 125.586 96.0598C124.621 96.0904 123.688 96.3564 122.904 96.8247L122.415 95.7238C123.454 95.147 124.674 94.8378 125.922 94.8348C128.575 94.8148 129.789 96.115 129.804 97.4801C129.796 98.0844 129.553 98.6702 129.111 99.1493C128.668 99.6284 128.051 99.9747 127.351 100.136C128.179 100.236 128.937 100.579 129.489 101.102C130.041 101.626 130.351 102.296 130.363 102.993C130.383 104.786 128.723 106.368 125.489 106.393C124.262 106.415 123.05 106.162 121.979 105.662L122.511 104.516Z" fill="#151515"/>
<path d="M149.411 94.8435L149.422 95.8487L143.676 106.1L141.791 106.114L147.517 96.1424L147.517 96.1051L140.937 96.1548L140.924 94.9138L149.411 94.8435Z" fill="#151515"/>
<path d="M159.301 103.134C159.285 101.719 160.288 100.712 161.936 100.117L161.935 100.061C161.323 99.8722 160.792 99.5378 160.407 99.0993C160.022 98.6608 159.8 98.1377 159.769 97.595C159.75 95.8142 161.54 94.5968 163.902 94.5789C166.51 94.5592 167.829 95.9083 167.844 97.3045C167.838 97.8785 167.624 98.4377 167.23 98.9089C166.837 99.3802 166.281 99.7416 165.637 99.9461L165.638 99.9957C167.32 100.535 168.367 101.514 168.382 102.873C168.403 104.821 166.405 106.146 163.842 106.165C161.07 106.155 159.318 104.772 159.301 103.134ZM166.543 103.011C166.528 101.652 165.388 101.003 163.535 100.582C161.967 100.979 161.127 101.842 161.139 102.915C161.13 103.207 161.196 103.498 161.332 103.767C161.468 104.037 161.67 104.279 161.926 104.479C162.183 104.678 162.487 104.831 162.818 104.926C163.15 105.021 163.503 105.056 163.852 105.029C165.529 105.017 166.555 104.165 166.543 103.011ZM161.474 97.4642C161.487 98.5873 162.507 99.1816 164.068 99.5111C164.627 99.3985 165.127 99.1377 165.493 98.7678C165.858 98.3979 166.069 97.939 166.095 97.4604C166.107 97.2109 166.055 96.9622 165.942 96.731C165.829 96.4998 165.657 96.2914 165.439 96.1201C165.221 95.9488 164.962 95.8184 164.678 95.7379C164.394 95.6574 164.093 95.6285 163.795 95.6533C163.498 95.6322 163.199 95.663 162.917 95.7437C162.635 95.8244 162.377 95.9533 162.158 96.1221C161.94 96.2908 161.766 96.4957 161.648 96.7237C161.531 96.9516 161.471 97.1975 161.474 97.4456L161.474 97.4642Z" fill="#151515"/>
<path d="M183.831 105.797L183.798 102.744L177.539 102.791L177.528 101.792L183.456 94.5862L185.423 94.5714L185.499 101.54L187.384 101.525L187.397 102.717L185.512 102.731L185.545 105.784L183.831 105.797ZM183.785 101.553L183.745 97.8296C183.738 97.2463 183.732 96.6568 183.785 96.0731L183.725 96.0735C183.315 96.7282 182.993 97.2147 182.626 97.7325L179.374 101.573L179.374 101.605L183.785 101.553Z" fill="#151515"/>
<path d="M204.825 95.7033L199.706 95.742L199.223 98.625C199.586 98.578 199.951 98.5524 200.318 98.5485C201.333 98.5305 202.335 98.737 203.223 99.1471C203.831 99.4315 204.335 99.8484 204.681 100.353C205.026 100.858 205.2 101.431 205.184 102.012C205.208 104.202 203.132 105.856 200.211 105.878C199.04 105.911 197.88 105.682 196.851 105.215L197.293 104.057C198.179 104.453 199.17 104.659 200.176 104.656C200.58 104.676 200.984 104.628 201.365 104.514C201.746 104.401 202.095 104.223 202.391 103.993C202.687 103.764 202.923 103.486 203.086 103.178C203.249 102.869 203.335 102.536 203.338 102.199C203.323 100.754 202.134 99.7262 199.444 99.7465C198.821 99.7568 198.199 99.8008 197.583 99.8785L198.388 94.4922L204.834 94.4435L204.825 95.7033Z" fill="#151515"/>
<path d="M269.311 95.353L269.273 95.3532L266.945 96.4258L266.575 95.2743L269.541 93.9363L271.091 93.9246L271.213 105.137L269.454 105.15L269.311 95.353Z" fill="#151515"/>
<path d="M288.013 95.2121L287.968 95.2124L285.64 96.2849L285.277 95.1334L288.243 93.7955L289.793 93.7838L289.915 104.996L288.157 105.01L288.013 95.2121Z" fill="#151515"/>
</svg>
