<svg width="373" height="59" viewBox="0 0 373 59" fill="none" xmlns="http://www.w3.org/2000/svg">
<path d="M10.2894 12.8228C10.291 13.7186 10.407 14.4893 10.6373 15.1347C10.8677 15.7801 11.2019 16.3108 11.6402 16.7266C12.0889 17.1425 12.6311 17.4488 13.2668 17.6456C13.913 17.8423 14.6476 17.94 15.4705 17.9385C16.4497 17.9368 17.6057 17.8149 18.9386 17.5729C20.2715 17.3309 21.7448 16.9585 23.3585 16.4556L23.3716 23.7681C21.6955 24.3336 20.0609 24.7428 18.4676 24.9956C16.8847 25.2485 15.3224 25.3763 13.7807 25.3791C11.8953 25.3824 10.1293 25.1512 8.48261 24.6854C6.84635 24.2196 5.41791 23.467 4.19729 22.4275C2.98707 21.3776 2.03157 20.0564 1.33079 18.4639C0.630016 16.8714 0.277691 14.997 0.273818 12.8408C0.270039 10.7366 0.584491 8.92356 1.21718 7.40159C1.86028 5.8796 2.76428 4.62798 3.92919 3.64672C5.10449 2.65502 6.50943 1.92333 8.144 1.45164C9.78899 0.979936 11.6115 0.742287 13.6115 0.738695C14.8406 0.736488 15.9449 0.797005 16.9243 0.920246C17.9141 1.04347 18.805 1.19812 19.597 1.3842C20.389 1.57027 21.0873 1.78256 21.6919 2.02106C22.3069 2.24912 22.8542 2.4721 23.3338 2.68999L23.3467 9.87748L18.6435 9.88592C18.1109 9.13688 17.5162 8.58586 16.8593 8.23287C16.2129 7.87987 15.5459 7.70398 14.8584 7.70522C14.275 7.70627 13.7075 7.82187 13.1559 8.05203C12.6146 8.28217 12.1308 8.61637 11.7045 9.05463C11.2782 9.4929 10.9355 10.03 10.6762 10.6659C10.4169 11.2913 10.288 12.0103 10.2894 12.8228ZM39.8276 25.3323C38.5567 25.3346 37.3274 25.2586 36.1397 25.1045C34.9623 24.9504 33.8524 24.6607 32.81 24.2355C31.7779 23.8103 30.8343 23.2651 29.9789 22.6C29.1235 21.9244 28.3877 21.1184 27.7714 20.182C27.1551 19.2352 26.674 18.1528 26.3281 16.9346C25.9925 15.7061 25.8234 14.3262 25.8207 12.7949C25.8181 11.3574 25.9824 10.0602 26.3137 8.9034C26.6449 7.74655 27.1118 6.71967 27.7144 5.82275C28.3169 4.92583 29.0395 4.1537 29.8821 3.50635C30.7351 2.85899 31.6769 2.33125 32.7074 1.92315C33.7483 1.50461 34.8623 1.19532 36.0495 0.995271C37.247 0.795203 38.4916 0.69401 39.7833 0.69169C41.075 0.68937 42.3199 0.786092 43.5182 0.981857C44.7165 1.17762 45.8368 1.4829 46.8792 1.8977C47.9217 2.31249 48.8653 2.84205 49.7102 3.48637C50.5656 4.13066 51.2961 4.90019 51.9019 5.79493C52.5076 6.68968 52.9782 7.71488 53.3137 8.87053C53.649 10.0158 53.818 11.3071 53.8206 12.7446C53.8247 14.9946 53.4583 16.9276 52.7216 18.5435C51.9954 20.149 50.9977 21.4632 49.7287 22.4864C48.4597 23.5095 46.9767 24.2413 45.2795 24.6819C43.5824 25.112 41.7651 25.3288 39.8276 25.3323ZM39.7961 7.8323C39.1295 7.8335 38.5671 7.92305 38.1091 8.10096C37.6615 8.26843 37.2869 8.49306 36.9853 8.77485C36.6942 9.05663 36.4708 9.37474 36.3152 9.72918C36.1596 10.0836 36.0404 10.4432 35.9577 10.808C35.8855 11.1727 35.8444 11.5269 35.8346 11.8707C35.8248 12.2144 35.8202 12.5165 35.8206 12.777C35.8211 13.0374 35.8269 13.3394 35.8379 13.6832C35.8489 14.0269 35.8912 14.3862 35.9648 14.7611C36.0488 15.1255 36.1693 15.4899 36.3262 15.8542C36.4831 16.2185 36.7076 16.5462 36.9998 16.8373C37.3024 17.118 37.6778 17.3465 38.126 17.5228C38.5847 17.6991 39.1473 17.7866 39.814 17.7854C40.4807 17.7842 41.0378 17.6947 41.4854 17.5168C41.9434 17.3389 42.3232 17.109 42.6248 16.8272C42.9264 16.535 43.1549 16.2065 43.3105 15.8416C43.4765 15.4767 43.5957 15.112 43.6679 14.7472C43.7402 14.3721 43.7812 14.0127 43.791 13.6689C43.8112 13.3251 43.8211 13.023 43.8206 12.7626C43.8202 12.5022 43.8092 12.2001 43.7877 11.8564C43.7767 11.5127 43.7344 11.1586 43.6608 10.7941C43.5873 10.4297 43.4668 10.0705 43.2995 9.71664C43.1426 9.36275 42.9129 9.04546 42.6103 8.76475C42.3077 8.48404 41.9271 8.26077 41.4685 8.09493C41.0203 7.91865 40.4628 7.83111 39.7961 7.8323ZM64.1966 13.3041L64.2048 17.8354L66.2054 18.2068L66.2176 25.0036L56.2177 25.0216L56.2055 18.2403L58.2048 17.8461L58.1874 8.1899L56.1867 7.80287L56.1746 1.02163L68.1745 1.00007L76.1966 13.2826L76.1875 8.18882L74.1867 7.77054L74.1745 0.989297L84.1745 0.971337L84.1867 7.75258L82.1874 8.14679L82.2047 17.803L84.2054 18.1901L84.2176 24.9713L72.202 24.9929L64.1966 13.3041ZM86.5862 12.6858C86.5823 10.5087 86.8915 8.66959 87.5138 7.16847C88.1465 5.66734 89.0453 4.43655 90.2103 3.47613C91.3232 2.55746 92.6292 1.84678 94.1283 1.34408C95.6274 0.841392 97.3509 0.588296 99.2988 0.584797C100.643 0.582384 101.835 0.637533 102.877 0.750246C103.919 0.862958 104.846 1.01233 105.659 1.19837C106.483 1.3844 107.212 1.59663 107.848 1.83507C108.494 2.07349 109.094 2.32242 109.646 2.58184L109.659 9.72246L104.956 9.7309C104.423 8.98186 103.829 8.43084 103.172 8.07785C102.525 7.72485 101.858 7.54896 101.171 7.5502C100.587 7.55124 100.02 7.66685 99.4682 7.89701C98.927 8.12714 98.4432 8.46135 98.0169 8.89961C97.5906 9.33788 97.2478 9.87495 96.9885 10.5108C96.7293 11.1363 96.6003 11.8553 96.6018 12.6678C96.605 14.4699 97.0136 15.7868 97.8276 16.6187C98.6521 17.4506 99.8195 17.8651 101.33 17.8624C101.705 17.8618 102.08 17.8402 102.455 17.7979C102.84 17.7555 103.225 17.6924 103.611 17.6083L103.607 15.7177L100.607 15.7231L100.6 11.4419L110.318 11.4244L110.339 22.8306C109.517 23.1759 108.642 23.5056 107.716 23.8197C106.799 24.1234 105.878 24.3907 104.951 24.6216C104.035 24.842 103.134 24.9946 102.249 25.0795C101.364 25.1749 100.546 25.2232 99.7962 25.2246C98.5671 25.2268 97.3898 25.1404 96.2645 24.9653C95.1392 24.7902 94.0865 24.4744 93.1065 24.0178C92.137 23.5612 91.2505 22.9899 90.4472 22.3039C89.6439 21.6074 88.9549 20.7909 88.3803 19.8544C87.8161 18.9075 87.3767 17.8406 87.0621 16.6537C86.7474 15.4563 86.5888 14.1337 86.5862 12.6858ZM138.796 24.8733L128.858 24.8911C128.545 24.2979 128.221 23.6683 127.886 23.0022C127.552 22.3362 127.227 21.644 126.914 20.9259C126.6 20.2077 126.307 19.4634 126.035 18.6931C125.762 17.9227 125.532 17.1315 125.343 16.3193L124.796 16.3203L124.811 24.8984L112.811 24.9199L112.799 18.1387L114.798 17.7445L114.781 8.08825L112.78 7.70122L112.768 0.919981L126.378 0.895538C128.18 0.892302 129.737 0.972838 131.05 1.13715C132.363 1.30146 133.478 1.53904 134.395 1.84989C135.312 2.15033 136.052 2.524 136.616 2.9709C137.189 3.40737 137.633 3.90658 137.947 4.46852C138.27 5.02002 138.485 5.62901 138.59 6.29549C138.706 6.95153 138.765 7.64934 138.766 8.38893C138.767 9.13892 138.696 9.82135 138.551 10.4362C138.417 11.0406 138.173 11.5983 137.82 12.1094C137.466 12.6204 136.983 13.0901 136.369 13.5182C135.755 13.936 134.975 14.3332 134.027 14.7099C134.226 15.1263 134.524 15.6153 134.921 16.1771C135.317 16.7285 135.746 17.2954 136.205 17.8779C136.664 18.45 137.124 19.0117 137.583 19.5629C138.053 20.1038 138.455 20.5666 138.789 20.9514L138.796 24.8733ZM124.788 11.7109C125.392 11.7098 125.939 11.6828 126.428 11.6298C126.928 11.5769 127.35 11.4563 127.693 11.2682C128.047 11.0801 128.317 10.8035 128.504 10.4386C128.691 10.0737 128.784 9.58394 128.783 8.96936C128.782 8.36519 128.687 7.88619 128.499 7.53236C128.311 7.16812 128.039 6.88736 127.685 6.69008C127.341 6.49278 126.919 6.36333 126.419 6.30172C125.929 6.2401 125.382 6.20984 124.778 6.21092L124.788 11.7109ZM157.952 24.8389L157.101 20.8091L150.57 20.8209L149.749 24.8536L140.858 24.8696L140.844 16.9946L142.765 16.6005L147.346 0.857878L160.253 0.834698L164.906 16.5607L166.828 16.9479L166.842 24.8229L157.952 24.8389ZM151.904 15.4591L155.748 15.4522L153.809 6.40878L151.904 15.4591ZM188.987 0.783089L189.001 8.78308L186.376 8.78779C186.199 8.55894 185.995 8.32493 185.766 8.08576C185.536 7.84659 185.28 7.63351 184.999 7.44651C184.717 7.2491 184.41 7.0934 184.076 6.97942C183.743 6.85502 183.383 6.79316 182.998 6.79386L183.017 17.622L185.018 18.009L185.03 24.7902L171.03 24.8154L171.018 18.0341L173.017 17.6399L172.998 6.81182C172.612 6.81251 172.253 6.87565 171.92 7.00125C171.587 7.11643 171.28 7.27324 170.999 7.47166C170.718 7.65966 170.463 7.87366 170.234 8.11366C170.006 8.35365 169.803 8.58839 169.626 8.81788L167.001 8.82259L166.987 0.822602L188.987 0.783089ZM215.346 9.25139C215.336 9.56391 215.331 9.87121 215.332 10.1733C215.332 10.465 215.333 10.7462 215.333 11.017L215.338 13.4389C215.341 15.5222 215.058 17.3092 214.488 18.7998C213.918 20.28 213.144 21.4949 212.166 22.4446C211.189 23.3943 210.039 24.063 208.717 24.4508C207.405 24.8386 206.01 25.0338 204.53 25.0365C202.822 25.0395 201.223 24.8497 199.733 24.467C198.253 24.0842 196.96 23.4198 195.854 22.4739C194.758 21.5175 193.892 20.3004 193.254 18.8223C192.626 17.3443 192.31 15.5636 192.307 13.4803L192.299 9.29278L190.423 8.93677L190.412 2.78053L202.615 2.75862L202.626 8.91486L200.752 9.2776L200.755 11.137C200.756 11.387 200.756 11.6422 200.757 11.9026C200.757 12.1526 200.758 12.387 200.758 12.6057C200.769 12.8244 200.774 13.0171 200.775 13.1838C200.775 13.3401 200.775 13.4442 200.775 13.4963C200.776 13.7359 200.781 14.0171 200.792 14.34C200.803 14.6525 200.846 14.9806 200.919 15.3242C200.993 15.6574 201.103 15.9905 201.249 16.3236C201.406 16.6462 201.62 16.9375 201.891 17.1974C202.173 17.4574 202.522 17.6703 202.939 17.8362C203.367 17.9917 203.893 18.0688 204.518 18.0677C205.143 18.0666 205.669 17.9875 206.096 17.8305C206.533 17.6631 206.887 17.4489 207.157 17.188C207.438 16.9166 207.656 16.6142 207.812 16.2806C207.967 15.9469 208.076 15.6134 208.138 15.28C208.21 14.9361 208.251 14.6079 208.261 14.2954C208.281 13.9724 208.291 13.6911 208.291 13.4516C208.291 13.3786 208.291 13.2641 208.29 13.1078C208.29 12.9411 208.284 12.7537 208.274 12.5453C208.273 12.3266 208.273 12.0974 208.272 11.8578C208.272 11.6078 208.272 11.3631 208.271 11.1235L208.268 9.2641L206.392 8.90809L206.381 2.75185L217.225 2.73238L217.236 8.88862L215.346 9.25139ZM230.957 18.7077C231.394 18.707 231.811 18.6489 232.206 18.5336C232.602 18.4079 232.966 18.251 233.299 18.0629C233.643 17.8644 233.95 17.6503 234.22 17.4206C234.501 17.1805 234.745 16.9405 234.953 16.7006L237.562 16.6959L237.577 24.6959L219.702 24.728L219.691 18.4936L221.565 18.1309L221.549 9.24025L219.673 8.88424L219.662 2.728L232.819 2.70437L232.83 8.86061L230.94 9.22338L230.957 18.7077ZM255.061 24.6645L254.273 20.9627L248.133 20.9738L247.358 24.6783L238.999 24.6933L238.986 17.4433L240.797 17.0807L245.1 2.68231L257.225 2.66053L261.61 17.0433L263.407 17.3995L263.42 24.6494L255.061 24.6645ZM249.077 16.0346L253.311 16.027L251.171 7.39017L249.077 16.0346ZM269.454 8.45108C268.912 8.45205 268.433 8.52583 268.017 8.67241C267.6 8.81899 267.252 9.00191 266.971 9.22117C266.69 9.44042 266.477 9.68039 266.332 9.94107C266.186 10.1913 266.114 10.4258 266.114 10.6446L263.505 10.6493L263.49 2.64928L284.803 2.611L284.817 10.611L282.208 10.6157C282.207 10.3969 282.134 10.1627 281.988 9.91295C281.841 9.65279 281.628 9.41359 281.346 9.19535C281.064 8.9771 280.715 8.79544 280.298 8.65035C279.881 8.50527 279.402 8.43321 278.86 8.43419L278.877 18.0279L280.753 18.3839L280.764 24.6183L267.608 24.6419L267.597 18.4076L269.471 18.0448L269.454 8.45108ZM286.943 2.60716L300.1 2.58353L300.111 8.73977L298.236 9.10251L298.252 17.9931L300.128 18.3491L300.139 24.5835L286.983 24.6071L286.972 18.3728L288.846 18.01L288.83 9.11941L286.954 8.7634L286.943 2.60716ZM315.515 24.8371C313.681 24.8404 311.962 24.6508 310.357 24.2683C308.763 23.8753 307.371 23.2059 306.182 22.2601C305.003 21.3039 304.069 20.0868 303.378 18.6089C302.699 17.131 302.357 15.3555 302.353 13.2826C302.35 11.2514 302.685 9.52161 303.36 8.09331C304.044 6.65458 304.98 5.48623 306.166 4.58826C307.352 3.67988 308.741 3.01593 310.334 2.5964C311.927 2.17687 313.64 1.96546 315.474 1.96217C317.296 1.95889 319.005 2.16416 320.6 2.57796C322.205 2.99175 323.602 3.6507 324.791 4.55481C325.99 5.44849 326.935 6.61346 327.625 8.04973C328.315 9.47557 328.662 11.2041 328.666 13.2354C328.668 14.6104 328.514 15.8606 328.204 16.9862C327.893 18.1013 327.452 19.0969 326.881 19.973C326.32 20.8386 325.639 21.5898 324.838 22.2266C324.048 22.8531 323.163 23.3755 322.185 23.7939C321.206 24.2019 320.155 24.4746 319.03 24.6121C317.905 24.7599 316.733 24.8349 315.515 24.8371ZM315.486 8.61841C314.871 8.61951 314.35 8.69857 313.923 8.85559C313.507 9.01259 313.158 9.21634 312.878 9.46684C312.607 9.71733 312.394 10.0042 312.239 10.3274C312.083 10.6506 311.969 10.9841 311.897 11.328C311.835 11.6614 311.794 11.9948 311.773 12.3282C311.764 12.6511 311.759 12.9376 311.759 13.1876C311.76 13.4272 311.765 13.7136 311.777 14.047C311.788 14.3698 311.825 14.7135 311.888 15.078C311.951 15.4321 312.056 15.786 312.202 16.1399C312.349 16.4938 312.558 16.8112 312.829 17.0919C313.111 17.3727 313.465 17.6012 313.893 17.7775C314.33 17.9434 314.867 18.0258 315.502 18.0246C316.127 18.0235 316.653 17.9392 317.08 17.7718C317.517 17.6044 317.871 17.385 318.141 17.1137C318.422 16.8319 318.64 16.519 318.796 16.175C318.952 15.8309 319.06 15.487 319.122 15.1431C319.195 14.7888 319.236 14.445 319.245 14.1117C319.266 13.7783 319.276 13.4918 319.275 13.2522C319.275 13.0022 319.264 12.7158 319.242 12.3929C319.231 12.0596 319.189 11.7211 319.115 11.3775C319.052 11.0339 318.942 10.7007 318.786 10.3781C318.629 10.0451 318.409 9.74857 318.128 9.48866C317.856 9.22873 317.502 9.02104 317.064 8.86557C316.637 8.69967 316.111 8.61728 315.486 8.61841ZM338.415 12.9679L338.424 17.921L340.315 18.2613L340.327 24.5113L330.92 24.5282L330.909 18.2938L332.784 17.9311L332.768 9.04049L330.892 8.68449L330.881 2.52825L342.162 2.50798L349.699 14.3538L349.689 9.04135L347.814 8.65409L347.803 2.49785L357.193 2.48099L357.204 8.63723L355.33 8.99997L355.346 17.8906L357.222 18.2466L357.233 24.481L345.952 24.5012L338.415 12.9679ZM360.154 6.71005L360.143 0.475686L372.158 0.454106L372.17 6.68847L370.187 16.4577L362.187 16.472L360.154 6.71005ZM361.191 18.4738L371.191 18.4559L371.202 24.4559L361.202 24.4738L361.191 18.4738ZM142.949 57.8659L142.098 53.8361L135.566 53.8479L134.746 57.8806L125.855 57.8966L125.841 50.0216L127.762 49.6275L132.343 33.8849L145.249 33.8617L149.903 49.5877L151.825 49.9749L151.839 57.8499L142.949 57.8659ZM136.901 48.4861L140.744 48.4792L138.806 39.4358L136.901 48.4861ZM153.366 46.5503C153.362 44.5919 153.656 42.9039 154.247 41.4862C154.839 40.058 155.68 38.8846 156.772 37.966C157.864 37.037 159.181 36.3523 160.722 35.912C162.273 35.4613 164.002 35.2343 165.908 35.2308C167.064 35.2288 168.106 35.2842 169.033 35.3971C169.971 35.51 170.81 35.6543 171.55 35.8301C172.3 36.0058 172.957 36.2026 173.52 36.4203C174.093 36.6276 174.598 36.8298 175.036 37.027L175.049 43.8238L170.627 43.8318C170.386 43.4884 170.146 43.192 169.906 42.9424C169.677 42.6824 169.426 42.4745 169.155 42.3188C168.884 42.1526 168.582 42.0281 168.248 41.9454C167.915 41.8627 167.524 41.8217 167.076 41.8225C166.534 41.8235 166.003 41.9078 165.483 42.0754C164.973 42.2325 164.515 42.499 164.109 42.8747C163.714 43.24 163.392 43.725 163.143 44.3296C162.905 44.9238 162.786 45.6583 162.788 46.5333C162.79 47.5542 162.89 48.3925 163.089 49.0484C163.288 49.6939 163.576 50.209 163.951 50.5938C164.327 50.9681 164.786 51.2277 165.328 51.3725C165.88 51.5174 166.51 51.5892 167.219 51.5879C167.594 51.5872 167.979 51.5605 168.375 51.5077C168.781 51.4549 169.218 51.3551 169.687 51.2085L169.684 49.4272L166.543 49.4329L166.536 45.5891L175.677 45.5727L175.695 55.9477C174.925 56.272 174.108 56.5755 173.244 56.8583C172.38 57.1411 171.51 57.3875 170.636 57.5974C169.772 57.8073 168.923 57.9442 168.09 58.0082C167.256 58.0722 166.486 58.1048 165.777 58.1061C164.038 58.1092 162.412 57.9038 160.901 57.4899C159.39 57.0759 158.076 56.3856 156.96 55.4188C155.844 54.4521 154.966 53.2349 154.328 51.7673C153.69 50.2893 153.369 48.5503 153.366 46.5503ZM193.37 57.7753L192.583 54.0736L186.442 54.0846L185.667 57.7891L177.308 57.8042L177.295 50.5542L179.107 50.1915L183.409 35.7932L195.534 35.7714L199.919 50.1542L201.717 50.5103L201.73 57.7603L193.37 57.7753ZM187.386 49.1454L191.621 49.1378L189.48 40.501L187.386 49.1454ZM204.034 35.7561L217.19 35.7325L217.201 41.8887L215.327 42.2515L215.343 51.1421L217.219 51.4981L217.23 57.7325L204.074 57.7561L204.062 51.5217L205.937 51.159L205.921 42.2684L204.045 41.9124L204.034 35.7561ZM227.756 46.1667L227.765 51.1198L229.656 51.4601L229.667 57.7101L220.261 57.727L220.25 51.4926L222.124 51.1299L222.108 42.2393L220.233 41.8833L220.222 35.727L231.503 35.7068L239.04 47.5526L239.03 42.2402L237.154 41.8529L237.143 35.6967L246.534 35.6798L246.545 41.836L244.671 42.1988L244.687 51.0894L246.562 51.4454L246.574 57.6798L235.292 57.7L227.756 46.1667Z" fill="#2A2A2A"/>
</svg>
