<svg width="361" height="120" viewBox="0 0 361 120" fill="none" xmlns="http://www.w3.org/2000/svg">
<g filter="url(#filter0_d_7206_24581)">
<path d="M291.963 18.4933C291.955 17.6351 292.935 17.1414 293.621 17.6577L299.748 22.2736C300.02 22.4786 300.376 22.5366 300.699 22.4286L307.975 19.998C308.789 19.726 309.562 20.5055 309.282 21.317L306.786 28.5707C306.675 28.8929 306.73 29.2491 306.932 29.5231L311.492 35.6919C312.002 36.382 311.5 37.3575 310.642 37.3426L302.972 37.2098C302.631 37.2039 302.309 37.3661 302.111 37.6434L297.653 43.8866C297.155 44.585 296.072 44.4084 295.821 43.5878L293.577 36.252C293.477 35.9261 293.223 35.6702 292.898 35.5676L285.583 33.2573C284.765 32.9988 284.598 31.9142 285.301 31.4219L291.584 27.0209C291.864 26.8254 292.029 26.5051 292.026 26.1643L291.963 18.4933Z" fill="#00AAFF"/>
</g>
<g filter="url(#filter1_d_7206_24581)">
<path d="M78.0276 -10.6005C78.4752 -11.0162 79.2052 -10.7383 79.2629 -10.1301L79.779 -4.694C79.802 -4.45251 79.9423 -4.23777 80.1542 -4.11975L84.925 -1.4631C85.4586 -1.16591 85.4199 -0.385746 84.8594 -0.14291L79.8488 2.02782C79.6262 2.12425 79.4653 2.32403 79.4186 2.56206L78.3662 7.92027C78.2485 8.51968 77.4945 8.72391 77.0904 8.26586L73.4775 4.17131C73.317 3.98942 73.0773 3.89815 72.8365 3.92724L67.4153 4.58215C66.8089 4.65541 66.3816 4.00147 66.6924 3.47554L69.4701 -1.22576C69.5935 -1.4346 69.6062 -1.69079 69.5041 -1.91084L67.206 -6.8643C66.949 -7.41843 67.4389 -8.02681 68.0351 -7.8938L73.3647 -6.70482C73.6014 -6.652 73.849 -6.71906 74.0267 -6.88415L78.0276 -10.6005Z" fill="#00AAFF"/>
</g>
<g filter="url(#filter2_d_7206_24581)">
<path d="M345.833 15.2401C346.282 15.0484 346.756 15.4553 346.635 15.9287L345.551 20.1606C345.503 20.3486 345.551 20.5482 345.678 20.6945L348.55 23.9864C348.871 24.3547 348.631 24.9314 348.143 24.9624L343.783 25.2394C343.59 25.2517 343.414 25.3585 343.315 25.525L341.071 29.2734C340.82 29.6928 340.198 29.6423 340.017 29.188L338.407 25.1273C338.335 24.9469 338.179 24.8133 337.99 24.77L333.732 23.7947C333.256 23.6856 333.111 23.0776 333.488 22.7659L336.852 19.9792C337.001 19.8555 337.08 19.6661 337.063 19.4728L336.675 15.1216C336.631 14.6348 337.165 14.3096 337.578 14.5712L341.268 16.9096C341.431 17.0135 341.636 17.0301 341.814 16.954L345.833 15.2401Z" fill="#00AAFF"/>
</g>
<g filter="url(#filter3_d_7206_24581)">
<path d="M272.174 -16.0698C272.158 -16.5583 272.708 -16.8538 273.106 -16.5699L276.662 -14.0327C276.82 -13.92 277.023 -13.8922 277.206 -13.9584L281.312 -15.4494C281.771 -15.6162 282.222 -15.1839 282.075 -14.7179L280.761 -10.5518C280.703 -10.3667 280.739 -10.1647 280.859 -10.0117L283.546 -6.56731C283.846 -6.18199 283.574 -5.61927 283.086 -5.61507L278.717 -5.57754C278.523 -5.57588 278.343 -5.47883 278.234 -5.31803L275.788 -1.69825C275.515 -1.29332 274.896 -1.37786 274.741 -1.84132L273.355 -5.98422C273.294 -6.16826 273.145 -6.31023 272.959 -6.36386L268.761 -7.57114C268.291 -7.7062 268.18 -8.32117 268.573 -8.61181L272.085 -11.2098C272.241 -11.3252 272.33 -11.51 272.323 -11.7039L272.174 -16.0698Z" fill="#00AAFF"/>
</g>
<g filter="url(#filter4_d_7206_24581)">
<path d="M80.6646 32.321C80.6354 31.4663 81.5989 30.9491 82.2951 31.4458L88.5182 35.886C88.7947 36.0833 89.1505 36.1318 89.4697 36.0159L96.6555 33.4067C97.4593 33.1148 98.2489 33.8713 97.9916 34.6869L95.6918 41.9776C95.5896 42.3015 95.6534 42.6549 95.8623 42.9227L100.564 48.9504C101.09 49.6247 100.615 50.6095 99.7596 50.6168L92.1151 50.6825C91.7755 50.6854 91.4591 50.8553 91.269 51.1367L86.9893 57.4713C86.5105 58.1799 85.427 58.032 85.1557 57.2209L82.731 49.9708C82.6233 49.6487 82.364 49.4003 82.0376 49.3064L74.6905 47.1937C73.8686 46.9574 73.6745 45.8812 74.3621 45.3725L80.508 40.8261C80.781 40.6241 80.9372 40.3007 80.9256 39.9613L80.6646 32.321Z" fill="#00AAFF"/>
</g>
<g filter="url(#filter5_d_7206_24581)">
<path d="M158.44 46.7235C159.009 46.0847 160.063 46.3753 160.224 47.2152L161.664 54.7231C161.728 55.0566 161.952 55.3373 162.263 55.4737L169.265 58.5436C170.048 58.887 170.097 59.9795 169.348 60.3922L162.653 64.0821C162.356 64.246 162.158 64.5458 162.124 64.8837L161.368 72.491C161.283 73.342 160.26 73.7266 159.636 73.1419L154.058 67.9144C153.81 67.6822 153.464 67.5867 153.132 67.6592L145.663 69.2909C144.828 69.4734 144.145 68.6187 144.509 67.8445L147.757 60.9239C147.901 60.6165 147.885 60.2577 147.713 59.9646L143.853 53.3657C143.422 52.6275 144.024 51.7146 144.872 51.8209L152.458 52.7712C152.795 52.8134 153.131 52.6871 153.357 52.4335L158.44 46.7235Z" fill="#00AAFF"/>
</g>
<g filter="url(#filter6_d_7206_24581)">
<path d="M132.422 29.8572C132.634 29.7128 132.92 29.8743 132.905 30.1304L132.777 32.4203C132.771 32.522 132.816 32.62 132.896 32.6824L134.71 34.0864C134.913 34.2434 134.848 34.5649 134.599 34.6304L132.382 35.2158C132.283 35.2418 132.204 35.3146 132.17 35.4105L131.395 37.5691C131.308 37.8106 130.982 37.8478 130.843 37.6322L129.601 35.7041C129.546 35.6185 129.452 35.5654 129.35 35.5623L127.058 35.4924C126.802 35.4846 126.665 35.1861 126.828 34.9873L128.278 33.2103C128.342 33.1314 128.363 33.0258 128.335 32.928L127.693 30.7262C127.621 30.4799 127.863 30.2582 128.102 30.351L130.24 31.1808C130.335 31.2177 130.442 31.2054 130.526 31.1481L132.422 29.8572Z" fill="#00AAFF"/>
</g>
<g filter="url(#filter7_d_7206_24581)">
<path d="M87.1308 68.3846C87.1194 68.1282 87.4069 67.9702 87.6172 68.1171L89.4975 69.4303C89.581 69.4887 89.6879 69.5022 89.7833 69.4664L91.931 68.662C92.1713 68.572 92.4105 68.7966 92.3357 69.0421L91.6678 71.2361C91.6382 71.3335 91.6583 71.4394 91.7218 71.5191L93.1505 73.3131C93.3104 73.5138 93.1707 73.8107 92.9142 73.8154L90.6211 73.8582C90.5193 73.8601 90.4248 73.912 90.3687 73.997L89.1039 75.9102C88.9624 76.1242 88.637 76.0831 88.5531 75.8406L87.8039 73.673C87.7706 73.5767 87.6921 73.503 87.5939 73.4758L85.3835 72.8642C85.1362 72.7957 85.0747 72.4735 85.2795 72.3188L87.1094 70.9364C87.1907 70.875 87.2366 70.7775 87.2321 70.6758L87.1308 68.3846Z" fill="#00AAFF"/>
</g>
<g filter="url(#filter8_d_7206_24581)">
<path d="M180.755 76.8648C180.956 76.7055 181.252 76.8461 181.256 77.1026L181.292 79.3957C181.294 79.4976 181.346 79.5922 181.431 79.6486L183.34 80.9188C183.554 81.0609 183.512 81.3863 183.269 81.4694L181.099 82.2124C181.003 82.2454 180.929 82.3238 180.901 82.4219L180.283 84.6305C180.214 84.8776 179.892 84.9381 179.738 84.733L178.361 82.899C178.299 82.8175 178.202 82.7714 178.1 82.7756L175.809 82.8704C175.552 82.881 175.395 82.593 175.543 82.3831L176.861 80.5067C176.92 80.4233 176.934 80.3165 176.898 80.2209L176.1 78.0709C176.011 77.8304 176.236 77.5919 176.481 77.6673L178.673 78.3415C178.771 78.3715 178.877 78.3516 178.957 78.2883L180.755 76.8648Z" fill="#00AAFF"/>
</g>
<g filter="url(#filter9_d_7206_24581)">
<path d="M188.966 37.0545C188.978 36.7982 189.279 36.6667 189.475 36.8319L191.229 38.3093C191.307 38.3749 191.412 38.398 191.51 38.371L193.722 37.7634C193.969 37.6954 194.187 37.9406 194.091 38.1783L193.228 40.3032C193.19 40.3976 193.2 40.5049 193.256 40.5899L194.517 42.5055C194.658 42.7197 194.493 43.0028 194.237 42.9844L191.949 42.8204C191.848 42.8131 191.749 42.8563 191.685 42.9359L190.253 44.7273C190.093 44.9277 189.773 44.8574 189.711 44.6084L189.16 42.3821C189.136 42.2832 189.064 42.2026 188.969 42.1667L186.822 41.3584C186.582 41.268 186.55 40.9415 186.768 40.8059L188.715 39.594C188.802 39.5402 188.856 39.4473 188.861 39.3455L188.966 37.0545Z" fill="#00AAFF"/>
</g>
<g filter="url(#filter10_d_7206_24581)">
<path d="M32.8966 40.0729C32.884 39.7066 33.297 39.485 33.5954 39.6979L36.2624 41.6008C36.3809 41.6854 36.5334 41.7062 36.6702 41.6565L39.7498 40.5382C40.0943 40.4132 40.4327 40.7374 40.3225 41.0869L39.3368 44.2115C39.293 44.3503 39.3203 44.5018 39.4099 44.6165L41.425 47.1999C41.6505 47.4888 41.4467 47.9109 41.0802 47.914L37.8039 47.9422C37.6584 47.9434 37.5228 48.0162 37.4413 48.1368L35.6072 50.8516C35.402 51.1553 34.9376 51.0919 34.8214 50.7443L33.7822 47.6372C33.736 47.4991 33.6249 47.3927 33.485 47.3524L30.3363 46.447C29.984 46.3457 29.9008 45.8845 30.1955 45.6665L32.8295 43.718C32.9465 43.6314 33.0134 43.4928 33.0084 43.3474L32.8966 40.0729Z" fill="#00AAFF"/>
</g>
<g filter="url(#filter11_d_7206_24581)">
<path d="M21.9405 -13.8416C21.1846 -14.2417 21.2157 -15.3349 21.993 -15.6914L28.9417 -18.8788C29.2504 -19.0204 29.4696 -19.3048 29.528 -19.6393L30.8416 -27.1704C30.9886 -28.0129 32.0378 -28.3212 32.6171 -27.6921L37.7957 -22.0685C38.0258 -21.8187 38.364 -21.698 38.7002 -21.7459L46.2687 -22.8238C47.1153 -22.9444 47.7327 -22.0418 47.3134 -21.2964L43.5653 -14.6335C43.3988 -14.3375 43.3886 -13.9785 43.5381 -13.6736L46.902 -6.80863C47.2783 -6.04066 46.6107 -5.17455 45.7722 -5.34299L38.2771 -6.84868C37.9442 -6.91557 37.5996 -6.81434 37.3558 -6.57798L31.8663 -1.25733C31.2523 -0.662118 30.2222 -1.02944 30.1233 -1.87891L29.2392 -9.47243C29.1999 -9.80976 28.9972 -10.1062 28.6971 -10.265L21.9405 -13.8416Z" fill="#00AAFF"/>
</g>
<g filter="url(#filter12_d_7206_24581)">
<path d="M120.027 -29.4129C120.001 -30.1456 120.827 -30.5888 121.424 -30.1631L126.758 -26.3572C126.995 -26.1881 127.3 -26.1465 127.574 -26.2458L133.733 -28.4823C134.422 -28.7325 135.099 -28.084 134.878 -27.385L132.907 -21.1358C132.819 -20.8582 132.874 -20.5553 133.053 -20.3258L137.083 -15.1591C137.534 -14.5812 137.127 -13.7371 136.394 -13.7308L129.841 -13.6745C129.55 -13.672 129.279 -13.5264 129.116 -13.2852L125.448 -7.85555C125.037 -7.24814 124.109 -7.37495 123.876 -8.07014L121.798 -14.2845C121.705 -14.5606 121.483 -14.7735 121.203 -14.854L114.906 -16.6649C114.201 -16.8675 114.035 -17.7899 114.624 -18.2259L119.892 -22.1228C120.126 -22.296 120.26 -22.5731 120.25 -22.8641L120.027 -29.4129Z" fill="#00AAFF"/>
</g>
<g filter="url(#filter13_d_7206_24581)">
<path d="M227.512 -3.06236C228.016 -3.59412 228.912 -3.3165 229.027 -2.59257L230.056 3.87874C230.102 4.16622 230.286 4.41278 230.549 4.53808L236.464 7.35865C237.125 7.67418 237.138 8.61145 236.485 8.94469L230.649 11.9236C230.389 12.0559 230.212 12.3074 230.174 12.596L229.319 19.0927C229.223 19.8194 228.336 20.1211 227.817 19.6031L223.181 14.9728C222.975 14.7672 222.681 14.676 222.394 14.7291L215.952 15.9237C215.231 16.0573 214.67 15.3065 215.002 14.6531L217.973 8.81254C218.105 8.55309 218.101 8.24531 217.962 7.9895L214.835 2.23111C214.485 1.58693 215.025 0.821249 215.75 0.935421L222.222 1.95601C222.51 2.00135 222.801 1.9023 223.002 1.69113L227.512 -3.06236Z" fill="#00AAFF"/>
</g>
<g filter="url(#filter14_d_7206_24581)">
<path d="M234.404 61.6262C234.371 60.6494 235.472 60.0583 236.268 60.626L243.38 65.7005C243.696 65.9259 244.102 65.9815 244.467 65.849L252.679 62.867C253.598 62.5334 254.501 63.398 254.207 64.3301L251.578 72.6623C251.461 73.0325 251.534 73.4364 251.773 73.7424L257.147 80.6312C257.748 81.4019 257.204 82.5273 256.227 82.5357L247.491 82.6108C247.102 82.6141 246.741 82.8082 246.524 83.1298L241.632 90.3694C241.085 91.1792 239.847 91.0102 239.537 90.0832L236.766 81.7974C236.643 81.4293 236.346 81.1454 235.973 81.0381L227.577 78.6236C226.637 78.3535 226.416 77.1235 227.201 76.5423L234.225 71.3463C234.537 71.1155 234.716 70.7459 234.702 70.358L234.404 61.6262Z" fill="#00AAFF"/>
</g>
<defs>
<filter id="filter0_d_7206_24581" x="264.151" y="0.881024" width="68.2538" height="68.2892" filterUnits="userSpaceOnUse" color-interpolation-filters="sRGB">
<feFlood flood-opacity="0" result="BackgroundImageFix"/>
<feColorMatrix in="SourceAlpha" type="matrix" values="0 0 0 0 0 0 0 0 0 0 0 0 0 0 0 0 0 0 127 0" result="hardAlpha"/>
<feOffset dy="4.14159"/>
<feGaussianBlur stdDeviation="10.354"/>
<feComposite in2="hardAlpha" operator="out"/>
<feColorMatrix type="matrix" values="0 0 0 0 0.0823529 0 0 0 0 0.0823529 0 0 0 0 0.0823529 0 0 0 0.25 0"/>
<feBlend mode="normal" in2="BackgroundImageFix" result="effect1_dropShadow_7206_24581"/>
<feBlend mode="normal" in="SourceGraphic" in2="effect1_dropShadow_7206_24581" result="shape"/>
</filter>
<filter id="filter1_d_7206_24581" x="51.848" y="-22.5907" width="48.1955" height="48.795" filterUnits="userSpaceOnUse" color-interpolation-filters="sRGB">
<feFlood flood-opacity="0" result="BackgroundImageFix"/>
<feColorMatrix in="SourceAlpha" type="matrix" values="0 0 0 0 0 0 0 0 0 0 0 0 0 0 0 0 0 0 127 0" result="hardAlpha"/>
<feOffset dy="2.94807"/>
<feGaussianBlur stdDeviation="7.37017"/>
<feComposite in2="hardAlpha" operator="out"/>
<feColorMatrix type="matrix" values="0 0 0 0 0.0823529 0 0 0 0 0.0823529 0 0 0 0 0.0823529 0 0 0 0.25 0"/>
<feBlend mode="normal" in2="BackgroundImageFix" result="effect1_dropShadow_7206_24581"/>
<feBlend mode="normal" in="SourceGraphic" in2="effect1_dropShadow_7206_24581" result="shape"/>
</filter>
<filter id="filter2_d_7206_24581" x="321.482" y="5.04446" width="39.0069" height="38.6666" filterUnits="userSpaceOnUse" color-interpolation-filters="sRGB">
<feFlood flood-opacity="0" result="BackgroundImageFix"/>
<feColorMatrix in="SourceAlpha" type="matrix" values="0 0 0 0 0 0 0 0 0 0 0 0 0 0 0 0 0 0 127 0" result="hardAlpha"/>
<feOffset dy="2.35845"/>
<feGaussianBlur stdDeviation="5.89613"/>
<feComposite in2="hardAlpha" operator="out"/>
<feColorMatrix type="matrix" values="0 0 0 0 0.0823529 0 0 0 0 0.0823529 0 0 0 0 0.0823529 0 0 0 0.25 0"/>
<feBlend mode="normal" in2="BackgroundImageFix" result="effect1_dropShadow_7206_24581"/>
<feBlend mode="normal" in="SourceGraphic" in2="effect1_dropShadow_7206_24581" result="shape"/>
</filter>
<filter id="filter3_d_7206_24581" x="256.541" y="-26.1146" width="38.9224" height="38.8267" filterUnits="userSpaceOnUse" color-interpolation-filters="sRGB">
<feFlood flood-opacity="0" result="BackgroundImageFix"/>
<feColorMatrix in="SourceAlpha" type="matrix" values="0 0 0 0 0 0 0 0 0 0 0 0 0 0 0 0 0 0 127 0" result="hardAlpha"/>
<feOffset dy="2.35845"/>
<feGaussianBlur stdDeviation="5.89613"/>
<feComposite in2="hardAlpha" operator="out"/>
<feColorMatrix type="matrix" values="0 0 0 0 0.0823529 0 0 0 0 0.0823529 0 0 0 0 0.0823529 0 0 0 0.25 0"/>
<feBlend mode="normal" in2="BackgroundImageFix" result="effect1_dropShadow_7206_24581"/>
<feBlend mode="normal" in="SourceGraphic" in2="effect1_dropShadow_7206_24581" result="shape"/>
</filter>
<filter id="filter4_d_7206_24581" x="53.3069" y="14.7427" width="68.1143" height="67.9468" filterUnits="userSpaceOnUse" color-interpolation-filters="sRGB">
<feFlood flood-opacity="0" result="BackgroundImageFix"/>
<feColorMatrix in="SourceAlpha" type="matrix" values="0 0 0 0 0 0 0 0 0 0 0 0 0 0 0 0 0 0 127 0" result="hardAlpha"/>
<feOffset dy="4.12729"/>
<feGaussianBlur stdDeviation="10.3182"/>
<feComposite in2="hardAlpha" operator="out"/>
<feColorMatrix type="matrix" values="0 0 0 0 0.0823529 0 0 0 0 0.0823529 0 0 0 0 0.0823529 0 0 0 0.25 0"/>
<feBlend mode="normal" in2="BackgroundImageFix" result="effect1_dropShadow_7206_24581"/>
<feBlend mode="normal" in="SourceGraphic" in2="effect1_dropShadow_7206_24581" result="shape"/>
</filter>
<filter id="filter5_d_7206_24581" x="123.073" y="29.8677" width="67.4453" height="68.3182" filterUnits="userSpaceOnUse" color-interpolation-filters="sRGB">
<feFlood flood-opacity="0" result="BackgroundImageFix"/>
<feColorMatrix in="SourceAlpha" type="matrix" values="0 0 0 0 0 0 0 0 0 0 0 0 0 0 0 0 0 0 127 0" result="hardAlpha"/>
<feOffset dy="4.12729"/>
<feGaussianBlur stdDeviation="10.3182"/>
<feComposite in2="hardAlpha" operator="out"/>
<feColorMatrix type="matrix" values="0 0 0 0 0.0823529 0 0 0 0 0.0823529 0 0 0 0 0.0823529 0 0 0 0.25 0"/>
<feBlend mode="normal" in2="BackgroundImageFix" result="effect1_dropShadow_7206_24581"/>
<feBlend mode="normal" in="SourceGraphic" in2="effect1_dropShadow_7206_24581" result="shape"/>
</filter>
<filter id="filter6_d_7206_24581" x="120.566" y="24.8501" width="20.4546" height="20.3532" filterUnits="userSpaceOnUse" color-interpolation-filters="sRGB">
<feFlood flood-opacity="0" result="BackgroundImageFix"/>
<feColorMatrix in="SourceAlpha" type="matrix" values="0 0 0 0 0 0 0 0 0 0 0 0 0 0 0 0 0 0 127 0" result="hardAlpha"/>
<feOffset dy="1.23819"/>
<feGaussianBlur stdDeviation="3.09547"/>
<feComposite in2="hardAlpha" operator="out"/>
<feColorMatrix type="matrix" values="0 0 0 0 0.0823529 0 0 0 0 0.0823529 0 0 0 0 0.0823529 0 0 0 0.25 0"/>
<feBlend mode="normal" in2="BackgroundImageFix" result="effect1_dropShadow_7206_24581"/>
<feBlend mode="normal" in="SourceGraphic" in2="effect1_dropShadow_7206_24581" result="shape"/>
</filter>
<filter id="filter7_d_7206_24581" x="78.9653" y="63.1079" width="20.4439" height="20.3703" filterUnits="userSpaceOnUse" color-interpolation-filters="sRGB">
<feFlood flood-opacity="0" result="BackgroundImageFix"/>
<feColorMatrix in="SourceAlpha" type="matrix" values="0 0 0 0 0 0 0 0 0 0 0 0 0 0 0 0 0 0 127 0" result="hardAlpha"/>
<feOffset dy="1.23819"/>
<feGaussianBlur stdDeviation="3.09547"/>
<feComposite in2="hardAlpha" operator="out"/>
<feColorMatrix type="matrix" values="0 0 0 0 0.0823529 0 0 0 0 0.0823529 0 0 0 0 0.0823529 0 0 0 0.25 0"/>
<feBlend mode="normal" in2="BackgroundImageFix" result="effect1_dropShadow_7206_24581"/>
<feBlend mode="normal" in="SourceGraphic" in2="effect1_dropShadow_7206_24581" result="shape"/>
</filter>
<filter id="filter8_d_7206_24581" x="169.295" y="71.8446" width="20.3741" height="20.4413" filterUnits="userSpaceOnUse" color-interpolation-filters="sRGB">
<feFlood flood-opacity="0" result="BackgroundImageFix"/>
<feColorMatrix in="SourceAlpha" type="matrix" values="0 0 0 0 0 0 0 0 0 0 0 0 0 0 0 0 0 0 127 0" result="hardAlpha"/>
<feOffset dy="1.23819"/>
<feGaussianBlur stdDeviation="3.09547"/>
<feComposite in2="hardAlpha" operator="out"/>
<feColorMatrix type="matrix" values="0 0 0 0 0.0823529 0 0 0 0 0.0823529 0 0 0 0 0.0823529 0 0 0 0.25 0"/>
<feBlend mode="normal" in2="BackgroundImageFix" result="effect1_dropShadow_7206_24581"/>
<feBlend mode="normal" in="SourceGraphic" in2="effect1_dropShadow_7206_24581" result="shape"/>
</filter>
<filter id="filter9_d_7206_24581" x="180.431" y="31.8059" width="20.3287" height="20.467" filterUnits="userSpaceOnUse" color-interpolation-filters="sRGB">
<feFlood flood-opacity="0" result="BackgroundImageFix"/>
<feColorMatrix in="SourceAlpha" type="matrix" values="0 0 0 0 0 0 0 0 0 0 0 0 0 0 0 0 0 0 127 0" result="hardAlpha"/>
<feOffset dy="1.23819"/>
<feGaussianBlur stdDeviation="3.09547"/>
<feComposite in2="hardAlpha" operator="out"/>
<feColorMatrix type="matrix" values="0 0 0 0 0.0823529 0 0 0 0 0.0823529 0 0 0 0 0.0823529 0 0 0 0.25 0"/>
<feBlend mode="normal" in2="BackgroundImageFix" result="effect1_dropShadow_7206_24581"/>
<feBlend mode="normal" in="SourceGraphic" in2="effect1_dropShadow_7206_24581" result="shape"/>
</filter>
<filter id="filter10_d_7206_24581" x="21.1719" y="32.5394" width="29.1916" height="29.12" filterUnits="userSpaceOnUse" color-interpolation-filters="sRGB">
<feFlood flood-opacity="0" result="BackgroundImageFix"/>
<feColorMatrix in="SourceAlpha" type="matrix" values="0 0 0 0 0 0 0 0 0 0 0 0 0 0 0 0 0 0 127 0" result="hardAlpha"/>
<feOffset dy="1.76884"/>
<feGaussianBlur stdDeviation="4.4221"/>
<feComposite in2="hardAlpha" operator="out"/>
<feColorMatrix type="matrix" values="0 0 0 0 0.0823529 0 0 0 0 0.0823529 0 0 0 0 0.0823529 0 0 0 0.25 0"/>
<feBlend mode="normal" in2="BackgroundImageFix" result="effect1_dropShadow_7206_24581"/>
<feBlend mode="normal" in="SourceGraphic" in2="effect1_dropShadow_7206_24581" result="shape"/>
</filter>
<filter id="filter11_d_7206_24581" x="0.754887" y="-44.5351" width="67.3298" height="68.3337" filterUnits="userSpaceOnUse" color-interpolation-filters="sRGB">
<feFlood flood-opacity="0" result="BackgroundImageFix"/>
<feColorMatrix in="SourceAlpha" type="matrix" values="0 0 0 0 0 0 0 0 0 0 0 0 0 0 0 0 0 0 127 0" result="hardAlpha"/>
<feOffset dy="4.12729"/>
<feGaussianBlur stdDeviation="10.3182"/>
<feComposite in2="hardAlpha" operator="out"/>
<feColorMatrix type="matrix" values="0 0 0 0 0.0823529 0 0 0 0 0.0823529 0 0 0 0 0.0823529 0 0 0 0.25 0"/>
<feBlend mode="normal" in2="BackgroundImageFix" result="effect1_dropShadow_7206_24581"/>
<feBlend mode="normal" in="SourceGraphic" in2="effect1_dropShadow_7206_24581" result="shape"/>
</filter>
<filter id="filter12_d_7206_24581" x="96.5772" y="-44.4801" width="58.3832" height="58.2401" filterUnits="userSpaceOnUse" color-interpolation-filters="sRGB">
<feFlood flood-opacity="0" result="BackgroundImageFix"/>
<feColorMatrix in="SourceAlpha" type="matrix" values="0 0 0 0 0 0 0 0 0 0 0 0 0 0 0 0 0 0 127 0" result="hardAlpha"/>
<feOffset dy="3.53768"/>
<feGaussianBlur stdDeviation="8.8442"/>
<feComposite in2="hardAlpha" operator="out"/>
<feColorMatrix type="matrix" values="0 0 0 0 0.0823529 0 0 0 0 0.0823529 0 0 0 0 0.0823529 0 0 0 0.25 0"/>
<feBlend mode="normal" in2="BackgroundImageFix" result="effect1_dropShadow_7206_24581"/>
<feBlend mode="normal" in="SourceGraphic" in2="effect1_dropShadow_7206_24581" result="shape"/>
</filter>
<filter id="filter13_d_7206_24581" x="197.037" y="-17.4897" width="57.6185" height="58.5786" filterUnits="userSpaceOnUse" color-interpolation-filters="sRGB">
<feFlood flood-opacity="0" result="BackgroundImageFix"/>
<feColorMatrix in="SourceAlpha" type="matrix" values="0 0 0 0 0 0 0 0 0 0 0 0 0 0 0 0 0 0 127 0" result="hardAlpha"/>
<feOffset dy="3.53768"/>
<feGaussianBlur stdDeviation="8.8442"/>
<feComposite in2="hardAlpha" operator="out"/>
<feColorMatrix type="matrix" values="0 0 0 0 0.0823529 0 0 0 0 0.0823529 0 0 0 0 0.0823529 0 0 0 0.25 0"/>
<feBlend mode="normal" in2="BackgroundImageFix" result="effect1_dropShadow_7206_24581"/>
<feBlend mode="normal" in="SourceGraphic" in2="effect1_dropShadow_7206_24581" result="shape"/>
</filter>
<filter id="filter14_d_7206_24581" x="203.139" y="41.5367" width="77.8444" height="77.6535" filterUnits="userSpaceOnUse" color-interpolation-filters="sRGB">
<feFlood flood-opacity="0" result="BackgroundImageFix"/>
<feColorMatrix in="SourceAlpha" type="matrix" values="0 0 0 0 0 0 0 0 0 0 0 0 0 0 0 0 0 0 127 0" result="hardAlpha"/>
<feOffset dy="4.71691"/>
<feGaussianBlur stdDeviation="11.7923"/>
<feComposite in2="hardAlpha" operator="out"/>
<feColorMatrix type="matrix" values="0 0 0 0 0.0823529 0 0 0 0 0.0823529 0 0 0 0 0.0823529 0 0 0 0.25 0"/>
<feBlend mode="normal" in2="BackgroundImageFix" result="effect1_dropShadow_7206_24581"/>
<feBlend mode="normal" in="SourceGraphic" in2="effect1_dropShadow_7206_24581" result="shape"/>
</filter>
</defs>
</svg>
