<svg width="336" height="71" viewBox="0 0 336 71" fill="none" xmlns="http://www.w3.org/2000/svg">
<g filter="url(#filter0_d_7449_107164)">
<path d="M20.6006 35.023C20.5955 34.4144 21.2906 34.0642 21.7768 34.4304L26.1225 37.7042C26.3156 37.8496 26.5678 37.8908 26.7971 37.8142L31.9576 36.0902C32.5349 35.8974 33.0827 36.4502 32.8847 37.0257L31.114 42.1704C31.0353 42.399 31.0742 42.6516 31.2179 42.8459L34.4521 47.2212C34.8139 47.7106 34.4575 48.4025 33.8489 48.3919L28.4088 48.2978C28.1672 48.2936 27.9389 48.4086 27.7985 48.6053L24.6368 53.0333C24.2831 53.5286 23.515 53.4034 23.3369 52.8214L21.7454 47.6184C21.6747 47.3873 21.4948 47.2058 21.2644 47.133L16.0761 45.4944C15.4957 45.3111 15.3774 44.5418 15.876 44.1927L20.3324 41.0713C20.5304 40.9326 20.6475 40.7054 20.6455 40.4637L20.6006 35.023Z" fill="#00AAFF"/>
</g>
<g filter="url(#filter1_d_7449_107164)">
<path d="M18.7567 4.34761C18.7508 4.17441 18.946 4.06961 19.0871 4.17026L20.3482 5.07004C20.4042 5.11001 20.4763 5.11986 20.541 5.09637L21.9971 4.56762C22.16 4.50847 22.3201 4.66178 22.2679 4.82706L21.8019 6.30446C21.7812 6.3701 21.7941 6.44171 21.8364 6.49597L22.7893 7.71745C22.8958 7.8541 22.7995 8.05366 22.6262 8.05514L21.0771 8.06845C21.0083 8.06904 20.9441 8.10346 20.9056 8.16048L20.0384 9.44415C19.9413 9.58775 19.7218 9.55777 19.6668 9.39341L19.1754 7.92423C19.1536 7.85897 19.1011 7.80862 19.0349 7.7896L17.5461 7.36147C17.3795 7.31358 17.3402 7.09549 17.4795 6.99242L18.725 6.07111C18.7803 6.03019 18.8119 5.96466 18.8096 5.89588L18.7567 4.34761Z" fill="#00AAFF"/>
</g>
<g filter="url(#filter2_d_7449_107164)">
<path d="M29.5247 22.3664C29.5148 22.0759 29.8423 21.9001 30.0789 22.069L32.194 23.5781C32.2879 23.6451 32.4089 23.6617 32.5174 23.6223L34.9596 22.7354C35.2329 22.6362 35.5012 22.8934 35.4138 23.1706L34.6321 25.6485C34.5974 25.7586 34.6191 25.8787 34.6901 25.9697L36.2882 28.0184C36.467 28.2476 36.3054 28.5823 36.0147 28.5848L33.4165 28.6071C33.3011 28.6081 33.1935 28.6658 33.1289 28.7615L31.6743 30.9145C31.5116 31.1553 31.1433 31.105 31.0512 30.8294L30.227 28.3652C30.1904 28.2558 30.1023 28.1713 29.9914 28.1394L27.4943 27.4213C27.2149 27.341 27.1489 26.9752 27.3826 26.8024L29.4715 25.2571C29.5643 25.1885 29.6174 25.0786 29.6134 24.9632L29.5247 22.3664Z" fill="#00AAFF"/>
</g>
<path d="M67.1204 21.2179L67.1317 27.4906L65.0734 27.4943C64.9343 27.3149 64.7747 27.1314 64.5946 26.9438C64.4146 26.7563 64.2142 26.5892 63.9934 26.4426C63.7726 26.2878 63.5315 26.1657 63.2699 26.0764C63.0084 25.9788 62.7265 25.9303 62.4243 25.9309L62.4396 34.4211L64.0083 34.7246L64.0178 40.0418L53.0405 40.0615L53.031 34.7443L54.5986 34.4352L54.5834 25.945C54.2812 25.9455 53.9995 25.995 53.7383 26.0935C53.4771 26.1838 53.2364 26.3068 53.0161 26.4623C52.7958 26.6097 52.596 26.7775 52.4167 26.9657C52.2373 27.1539 52.0784 27.338 51.9399 27.5179L49.8816 27.5216L49.8704 21.2488L67.1204 21.2179ZM87.9327 39.9988L80.6063 40.012C80.3769 39.5877 80.1392 39.1389 79.8933 38.6656C79.6474 38.1841 79.4097 37.6822 79.18 37.1599C78.9504 36.6376 78.733 36.0989 78.5278 35.5439C78.3308 34.9888 78.1623 34.4174 78.0224 33.8296L77.6181 33.8303L77.6292 40.0173L68.7837 40.0332L68.7749 35.1449L70.2446 34.8604L70.232 27.8893L68.7614 27.6102L68.7527 22.7831L78.7866 22.7651C80.118 22.7627 81.2656 22.8178 82.2296 22.9304C83.2018 23.043 84.0229 23.209 84.6931 23.4283C85.3714 23.6476 85.9191 23.9162 86.3362 24.234C86.7533 24.5436 87.0766 24.8983 87.306 25.2981C87.5436 25.6897 87.7036 26.1223 87.7861 26.5959C87.8687 27.0695 87.9104 27.5717 87.9114 28.1026C87.9123 28.6417 87.8601 29.1318 87.7547 29.5731C87.6575 30.0143 87.4785 30.4189 87.2178 30.7869C86.9571 31.155 86.5984 31.4946 86.1415 31.8058C85.6929 32.1088 85.1176 32.3957 84.4156 32.6665C84.5632 32.9602 84.7802 33.3111 85.0668 33.7189C85.3616 34.1186 85.6809 34.5305 86.0247 34.9546C86.3685 35.3705 86.7082 35.7742 87.0437 36.1657C87.3875 36.5571 87.6821 36.8914 87.9276 37.1687L87.9327 39.9988ZM77.6122 30.5102C78.0614 30.5094 78.4656 30.4882 78.8249 30.4467C79.1924 30.3971 79.5026 30.2985 79.7555 30.151C80.0166 29.9954 80.2163 29.7704 80.3546 29.4761C80.493 29.1818 80.5617 28.7856 80.5608 28.2873C80.5599 27.7973 80.4898 27.4054 80.3504 27.1116C80.211 26.8178 80.0105 26.5935 79.7489 26.4388C79.4954 26.2759 79.1848 26.1703 78.8172 26.122C78.4577 26.0736 78.0534 26.0498 77.6041 26.0506L77.6122 30.5102ZM94.4628 39.9871L94.454 35.1232L95.9235 34.7531L90.8512 27.8401L88.9885 27.5739L88.9799 22.7468L98.8178 22.7291L98.8265 27.5562L97.6753 27.8278L100.022 31.3643L102.343 27.8194L101.191 27.552L101.182 22.7249L111.008 22.7072L111.017 27.5343L109.167 27.8072L104.12 34.7383L105.603 35.1032L105.612 39.967L94.4628 39.9871ZM124.883 39.9324L124.874 34.6398L126.441 34.2449L121.049 26.7322L119.064 26.4417L119.054 21.1246L129.517 21.1058L129.527 26.4229L128.302 26.7192L130.796 30.5617L133.276 26.7102L132.051 26.4184L132.041 21.1013L142.491 21.0825L142.501 26.3996L140.529 26.6972L135.164 34.2293L136.733 34.6185L136.743 39.9111L124.883 39.9324ZM153.246 40.102C151.808 40.1046 150.46 39.9559 149.202 39.656C147.952 39.3479 146.86 38.823 145.928 38.0814C145.004 37.3316 144.271 36.3773 143.73 35.2185C143.197 34.0597 142.929 32.6675 142.926 31.0422C142.923 29.4495 143.186 28.0932 143.715 26.9733C144.252 25.8452 144.985 24.9291 145.915 24.225C146.845 23.5127 147.935 22.9921 149.184 22.6632C150.433 22.3342 151.776 22.1684 153.214 22.1659C154.643 22.1633 155.983 22.3242 157.233 22.6487C158.491 22.9732 159.587 23.4898 160.519 24.1987C161.46 24.8995 162.2 25.8129 162.742 26.9391C163.283 28.0571 163.555 29.4124 163.557 31.0051C163.559 32.0833 163.439 33.0636 163.195 33.9461C162.952 34.8205 162.606 35.6012 162.158 36.288C161.718 36.9668 161.184 37.5558 160.556 38.0551C159.936 38.5463 159.243 38.9559 158.476 39.284C157.708 39.6039 156.884 39.8178 156.002 39.9256C155.12 40.0415 154.201 40.1003 153.246 40.102ZM153.223 27.385C152.741 27.3859 152.333 27.4479 151.998 27.571C151.672 27.6941 151.398 27.8538 151.178 28.0502C150.966 28.2467 150.799 28.4716 150.677 28.725C150.555 28.9784 150.466 29.2399 150.409 29.5096C150.36 29.771 150.328 30.0324 150.312 30.2938C150.305 30.547 150.301 30.7717 150.301 30.9677C150.302 31.1555 150.306 31.3801 150.315 31.6415C150.323 31.8947 150.352 32.1642 150.402 32.4499C150.451 32.7275 150.534 33.0051 150.648 33.2826C150.763 33.5601 150.927 33.8089 151.14 34.0291C151.361 34.2492 151.639 34.4284 151.974 34.5666C152.317 34.6967 152.738 34.7613 153.236 34.7604C153.726 34.7595 154.139 34.6934 154.473 34.5621C154.816 34.4308 155.093 34.2588 155.305 34.0461C155.525 33.8252 155.697 33.5798 155.819 33.3101C155.941 33.0403 156.026 32.7706 156.074 32.501C156.131 32.2232 156.163 31.9536 156.171 31.6922C156.187 31.4308 156.195 31.2062 156.194 31.0184C156.194 30.8223 156.185 30.5977 156.169 30.3446C156.16 30.0832 156.127 29.8178 156.069 29.5484C156.02 29.279 155.933 29.0177 155.81 28.7648C155.687 28.5036 155.516 28.2712 155.295 28.0674C155.082 27.8635 154.804 27.7007 154.461 27.5788C154.126 27.4487 153.713 27.3841 153.223 27.385ZM184.306 27.6845C184.298 27.9295 184.294 28.1705 184.295 28.4073C184.295 28.636 184.295 28.8565 184.296 29.0689L184.299 30.9679C184.302 32.6014 184.08 34.0026 183.633 35.1713C183.186 36.332 182.579 37.2846 181.813 38.0292C181.046 38.7739 180.145 39.2982 179.108 39.6023C178.079 39.9063 176.985 40.0594 175.825 40.0615C174.486 40.0639 173.232 39.915 172.063 39.6149C170.903 39.3148 169.889 38.7939 169.022 38.0522C168.163 37.3023 167.483 36.3479 166.983 35.189C166.491 34.0301 166.243 32.6338 166.24 31.0003L166.235 27.7169L164.764 27.4378L164.755 22.6107L174.324 22.5935L174.332 27.4206L172.863 27.705L172.865 29.1629C172.866 29.359 172.866 29.5591 172.866 29.7633C172.867 29.9593 172.867 30.1431 172.867 30.3146C172.876 30.4861 172.88 30.6372 172.88 30.7679C172.881 30.8904 172.881 30.9721 172.881 31.0129C172.881 31.2007 172.886 31.4213 172.894 31.6744C172.903 31.9195 172.936 32.1767 172.994 32.4461C173.051 32.7074 173.138 32.9686 173.252 33.2297C173.375 33.4827 173.543 33.7111 173.756 33.9149C173.977 34.1187 174.251 34.2857 174.578 34.4158C174.913 34.5377 175.325 34.5982 175.815 34.5973C176.305 34.5964 176.718 34.5344 177.052 34.4113C177.395 34.28 177.673 34.1121 177.885 33.9075C178.105 33.6948 178.276 33.4576 178.398 33.196C178.52 32.9344 178.605 32.6729 178.654 32.4114C178.71 32.1418 178.743 31.8845 178.75 31.6394C178.766 31.3862 178.774 31.1657 178.774 30.9778C178.774 30.9206 178.773 30.8308 178.773 30.7083C178.773 30.5776 178.769 30.4306 178.76 30.2672C178.76 30.0957 178.76 29.916 178.759 29.7282C178.759 29.5322 178.759 29.3402 178.758 29.1524L178.756 27.6944L177.285 27.4153L177.276 22.5882L185.779 22.5729L185.787 27.4L184.306 27.6845ZM206.87 39.7852L199.544 39.7983C199.314 39.374 199.077 38.9252 198.831 38.452C198.585 37.9705 198.347 37.4686 198.117 36.9463C197.888 36.424 197.67 35.8853 197.465 35.3303C197.268 34.7752 197.1 34.2038 196.96 33.616L196.555 33.6167L196.567 39.8037L187.721 39.8196L187.712 34.9312L189.182 34.6468L189.169 27.6757L187.699 27.3966L187.69 22.5695L197.724 22.5515C199.055 22.5491 200.203 22.6042 201.167 22.7168C202.139 22.8294 202.96 22.9954 203.63 23.2147C204.309 23.434 204.856 23.7026 205.274 24.0204C205.691 24.33 206.014 24.6847 206.243 25.0845C206.481 25.4761 206.641 25.9087 206.723 26.3823C206.806 26.8559 206.848 27.3581 206.849 27.889C206.85 28.4281 206.797 28.9182 206.692 29.3595C206.595 29.8007 206.416 30.2053 206.155 30.5733C205.894 30.9413 205.536 31.2809 205.079 31.5921C204.63 31.8951 204.055 32.1821 203.353 32.4528C203.5 32.7466 203.718 33.0974 204.004 33.5053C204.299 33.905 204.618 34.3169 204.962 34.741C205.306 35.1569 205.645 35.5606 205.981 35.9521C206.325 36.3435 206.619 36.6778 206.865 36.9551L206.87 39.7852ZM196.549 30.2965C196.999 30.2957 197.403 30.2746 197.762 30.2331C198.13 30.1834 198.44 30.0849 198.693 29.9374C198.954 29.7817 199.154 29.5568 199.292 29.2625C199.43 28.9682 199.499 28.572 199.498 28.0737C199.497 27.5837 199.427 27.1917 199.288 26.898C199.148 26.6042 198.948 26.3799 198.686 26.2252C198.433 26.0623 198.122 25.9567 197.754 25.9083C197.395 25.86 196.991 25.8362 196.541 25.837L196.549 30.2965ZM226.072 35.0461C226.464 35.0454 226.831 34.9998 227.174 34.9094C227.517 34.8107 227.835 34.6877 228.129 34.5401C228.423 34.3926 228.688 34.2246 228.925 34.0364C229.169 33.8481 229.381 33.6598 229.561 33.4717L231.607 33.468L231.618 39.7407L216.671 39.7676L216.662 34.4504L218.229 34.1413L218.216 26.5699L216.647 26.2665L216.637 20.9493L227.615 20.9296L227.624 26.2467L226.057 26.5558L226.072 35.0461ZM251.468 27.5638C251.46 27.8089 251.457 28.0498 251.457 28.2867C251.458 28.5154 251.458 28.7359 251.458 28.9483L251.462 30.8473C251.465 32.4808 251.243 33.8819 250.795 35.0507C250.348 36.2113 249.742 37.164 248.975 37.9086C248.209 38.6532 247.307 39.1776 246.27 39.4816C245.242 39.7857 244.148 39.9388 242.988 39.9408C241.648 39.9432 240.394 39.7944 239.226 39.4943C238.065 39.1942 237.052 38.6733 236.185 37.9316C235.326 37.1817 234.646 36.2273 234.146 35.0684C233.654 33.9094 233.406 32.5132 233.403 30.8797L233.397 27.5963L231.926 27.3171L231.918 22.4901L241.486 22.4729L241.495 27.3L240.025 27.5844L240.028 29.0423C240.028 29.2383 240.029 29.4384 240.029 29.6426C240.029 29.8387 240.03 30.0224 240.03 30.194C240.038 30.3655 240.043 30.5166 240.043 30.6472C240.043 30.7697 240.043 30.8514 240.043 30.8923C240.044 31.0801 240.048 31.3006 240.057 31.5538C240.065 31.7988 240.099 32.0561 240.156 32.3255C240.214 32.5867 240.3 32.848 240.415 33.1091C240.538 33.3621 240.706 33.5905 240.918 33.7943C241.139 33.9981 241.413 34.165 241.74 34.2951C242.075 34.417 242.488 34.4776 242.978 34.4767C243.468 34.4758 243.88 34.4138 244.215 34.2907C244.558 34.1594 244.835 33.9915 245.047 33.7869C245.267 33.5741 245.438 33.337 245.56 33.0754C245.683 32.8138 245.768 32.5523 245.816 32.2908C245.873 32.0212 245.905 31.7638 245.913 31.5188C245.929 31.2656 245.937 31.045 245.936 30.8572C245.936 30.8 245.936 30.7102 245.936 30.5876C245.936 30.457 245.931 30.31 245.923 30.1466C245.922 29.9751 245.922 29.7954 245.922 29.6075C245.921 29.4115 245.921 29.2196 245.921 29.0317L245.918 27.5738L244.447 27.2947L244.439 22.4676L252.941 22.4523L252.95 27.2794L251.468 27.5638ZM261.594 30.8291C261.596 32.1277 261.929 33.0746 262.591 33.6696C263.254 34.2565 264.194 34.5488 265.411 34.5467C266.129 34.5454 266.97 34.454 267.934 34.2726C268.906 34.0912 270 33.8156 271.216 33.4458L271.225 38.7752C268.776 39.5229 266.421 39.8988 264.158 39.9028C262.753 39.9053 261.446 39.7443 260.237 39.4198C259.028 39.0871 257.977 38.5418 257.085 37.7838C256.194 37.0258 255.49 36.0714 254.973 34.9207C254.465 33.7618 254.209 32.4023 254.206 30.8423C254.203 29.2986 254.434 27.971 254.897 26.8593C255.369 25.7395 256.033 24.8195 256.889 24.0992C257.754 23.3707 258.79 22.8339 259.998 22.4886C261.206 22.1434 262.554 21.9695 264.04 21.9668C264.947 21.9652 265.764 22.0086 266.491 22.0972C267.226 22.1857 267.884 22.2989 268.464 22.4367C269.052 22.5745 269.567 22.7287 270.008 22.8995C270.458 23.062 270.854 23.2206 271.198 23.3751L271.207 28.7045L267.74 28.7108C267.347 28.1724 266.914 27.777 266.439 27.5247C265.965 27.2642 265.471 27.1344 264.956 27.1353C264.532 27.1361 264.115 27.2185 263.707 27.3826C263.307 27.5467 262.948 27.7882 262.63 28.1074C262.32 28.4183 262.068 28.8026 261.873 29.2604C261.686 29.7181 261.593 30.241 261.594 30.8291ZM293.88 39.6289L285.61 39.6438L282.338 32.4212L282.351 39.6496L273.506 39.6655L273.497 34.7772L274.967 34.4927L274.954 27.5217L273.483 27.2425L273.475 22.4154L282.32 22.3995L282.333 29.2849L285.579 22.3937L293.518 22.3794L293.524 25.4913C293.043 25.9006 292.594 26.3302 292.178 26.7801C291.771 27.2301 291.388 27.6841 291.029 28.1421C290.671 28.6001 290.341 29.05 290.039 29.4916C289.738 29.9332 289.465 30.3543 289.221 30.7549C289.54 31.2608 289.88 31.791 290.24 32.3458C290.601 32.8924 290.973 33.443 291.358 33.9977C291.751 34.5524 292.157 35.0989 292.574 35.6373C293 36.1674 293.434 36.6648 293.875 37.1296L293.88 39.6289Z" fill="#FCF4E9"/>
<g filter="url(#filter3_d_7449_107164)">
<path d="M306.981 35.0233C306.976 34.4146 307.671 34.0644 308.158 34.4307L312.503 37.7045C312.696 37.8499 312.949 37.891 313.178 37.8144L318.338 36.0905C318.916 35.8976 319.463 36.4504 319.265 37.026L317.495 42.1707C317.416 42.3992 317.455 42.6518 317.599 42.8462L320.833 47.2214C321.195 47.7109 320.838 48.4027 320.23 48.3922L314.79 48.298C314.548 48.2938 314.32 48.4088 314.179 48.6055L311.018 53.0335C310.664 53.5289 309.896 53.4036 309.718 52.8216L308.126 47.6187C308.055 47.3876 307.876 47.206 307.645 47.1332L302.457 45.4947C301.876 45.3113 301.758 44.5421 302.257 44.1929L306.713 41.0715C306.911 40.9328 307.028 40.7057 307.026 40.464L306.981 35.0233Z" fill="#00AAFF"/>
</g>
<g filter="url(#filter4_d_7449_107164)">
<path d="M305.137 4.34785C305.131 4.17465 305.327 4.06985 305.468 4.17051L306.729 5.07029C306.785 5.11026 306.857 5.1201 306.922 5.09661L308.378 4.56786C308.541 4.50871 308.701 4.66203 308.649 4.8273L308.182 6.30471C308.162 6.37034 308.175 6.44196 308.217 6.49622L309.17 7.7177C309.276 7.85434 309.18 8.0539 309.007 8.05539L307.458 8.0687C307.389 8.06929 307.325 8.1037 307.286 8.16073L306.419 9.44439C306.322 9.58799 306.102 9.55801 306.047 9.39366L305.556 7.92448C305.534 7.85921 305.482 7.80887 305.416 7.78985L303.927 7.36171C303.76 7.31382 303.721 7.09573 303.86 6.99267L305.106 6.07136C305.161 6.03043 305.193 5.9649 305.19 5.89612L305.137 4.34785Z" fill="#00AAFF"/>
</g>
<g filter="url(#filter5_d_7449_107164)">
<path d="M315.905 22.3667C315.895 22.0762 316.223 21.9004 316.459 22.0692L318.575 23.5783C318.669 23.6454 318.789 23.6619 318.898 23.6225L321.34 22.7357C321.613 22.6365 321.882 22.8936 321.794 23.1708L321.013 25.6487C320.978 25.7588 321 25.8789 321.071 25.9699L322.669 28.0186C322.848 28.2478 322.686 28.5825 322.395 28.585L319.797 28.6073C319.682 28.6083 319.574 28.6661 319.51 28.7617L318.055 30.9147C317.892 31.1555 317.524 31.1053 317.432 30.8296L316.608 28.3655C316.571 28.256 316.483 28.1716 316.372 28.1397L313.875 27.4216C313.596 27.3413 313.53 26.9755 313.763 26.8026L315.852 25.2574C315.945 25.1887 315.998 25.0788 315.994 24.9635L315.905 22.3667Z" fill="#00AAFF"/>
</g>
<defs>
<filter id="filter0_d_7449_107164" x="0.875473" y="22.5315" width="48.4091" height="48.4341" filterUnits="userSpaceOnUse" color-interpolation-filters="sRGB">
<feFlood flood-opacity="0" result="BackgroundImageFix"/>
<feColorMatrix in="SourceAlpha" type="matrix" values="0 0 0 0 0 0 0 0 0 0 0 0 0 0 0 0 0 0 127 0" result="hardAlpha"/>
<feOffset dy="2.93743"/>
<feGaussianBlur stdDeviation="7.34357"/>
<feComposite in2="hardAlpha" operator="out"/>
<feColorMatrix type="matrix" values="0 0 0 0 0.0823529 0 0 0 0 0.0823529 0 0 0 0 0.0823529 0 0 0 0.25 0"/>
<feBlend mode="normal" in2="BackgroundImageFix" result="effect1_dropShadow_7449_107164"/>
<feBlend mode="normal" in="SourceGraphic" in2="effect1_dropShadow_7449_107164" result="shape"/>
</filter>
<filter id="filter1_d_7449_107164" x="13.2128" y="0.785386" width="13.8029" height="13.769" filterUnits="userSpaceOnUse" color-interpolation-filters="sRGB">
<feFlood flood-opacity="0" result="BackgroundImageFix"/>
<feColorMatrix in="SourceAlpha" type="matrix" values="0 0 0 0 0 0 0 0 0 0 0 0 0 0 0 0 0 0 127 0" result="hardAlpha"/>
<feOffset dy="0.836369"/>
<feGaussianBlur stdDeviation="2.09092"/>
<feComposite in2="hardAlpha" operator="out"/>
<feColorMatrix type="matrix" values="0 0 0 0 0.0823529 0 0 0 0 0.0823529 0 0 0 0 0.0823529 0 0 0 0.25 0"/>
<feBlend mode="normal" in2="BackgroundImageFix" result="effect1_dropShadow_7449_107164"/>
<feBlend mode="normal" in="SourceGraphic" in2="effect1_dropShadow_7449_107164" result="shape"/>
</filter>
<filter id="filter2_d_7449_107164" x="20.2265" y="16.3921" width="23.1504" height="23.0934" filterUnits="userSpaceOnUse" color-interpolation-filters="sRGB">
<feFlood flood-opacity="0" result="BackgroundImageFix"/>
<feColorMatrix in="SourceAlpha" type="matrix" values="0 0 0 0 0 0 0 0 0 0 0 0 0 0 0 0 0 0 127 0" result="hardAlpha"/>
<feOffset dy="1.40278"/>
<feGaussianBlur stdDeviation="3.50694"/>
<feComposite in2="hardAlpha" operator="out"/>
<feColorMatrix type="matrix" values="0 0 0 0 0.0823529 0 0 0 0 0.0823529 0 0 0 0 0.0823529 0 0 0 0.25 0"/>
<feBlend mode="normal" in2="BackgroundImageFix" result="effect1_dropShadow_7449_107164"/>
<feBlend mode="normal" in="SourceGraphic" in2="effect1_dropShadow_7449_107164" result="shape"/>
</filter>
<filter id="filter3_d_7449_107164" x="287.256" y="22.5318" width="48.4091" height="48.4341" filterUnits="userSpaceOnUse" color-interpolation-filters="sRGB">
<feFlood flood-opacity="0" result="BackgroundImageFix"/>
<feColorMatrix in="SourceAlpha" type="matrix" values="0 0 0 0 0 0 0 0 0 0 0 0 0 0 0 0 0 0 127 0" result="hardAlpha"/>
<feOffset dy="2.93743"/>
<feGaussianBlur stdDeviation="7.34357"/>
<feComposite in2="hardAlpha" operator="out"/>
<feColorMatrix type="matrix" values="0 0 0 0 0.0823529 0 0 0 0 0.0823529 0 0 0 0 0.0823529 0 0 0 0.25 0"/>
<feBlend mode="normal" in2="BackgroundImageFix" result="effect1_dropShadow_7449_107164"/>
<feBlend mode="normal" in="SourceGraphic" in2="effect1_dropShadow_7449_107164" result="shape"/>
</filter>
<filter id="filter4_d_7449_107164" x="299.593" y="0.78563" width="13.8029" height="13.769" filterUnits="userSpaceOnUse" color-interpolation-filters="sRGB">
<feFlood flood-opacity="0" result="BackgroundImageFix"/>
<feColorMatrix in="SourceAlpha" type="matrix" values="0 0 0 0 0 0 0 0 0 0 0 0 0 0 0 0 0 0 127 0" result="hardAlpha"/>
<feOffset dy="0.836369"/>
<feGaussianBlur stdDeviation="2.09092"/>
<feComposite in2="hardAlpha" operator="out"/>
<feColorMatrix type="matrix" values="0 0 0 0 0.0823529 0 0 0 0 0.0823529 0 0 0 0 0.0823529 0 0 0 0.25 0"/>
<feBlend mode="normal" in2="BackgroundImageFix" result="effect1_dropShadow_7449_107164"/>
<feBlend mode="normal" in="SourceGraphic" in2="effect1_dropShadow_7449_107164" result="shape"/>
</filter>
<filter id="filter5_d_7449_107164" x="306.607" y="16.3923" width="23.1504" height="23.0934" filterUnits="userSpaceOnUse" color-interpolation-filters="sRGB">
<feFlood flood-opacity="0" result="BackgroundImageFix"/>
<feColorMatrix in="SourceAlpha" type="matrix" values="0 0 0 0 0 0 0 0 0 0 0 0 0 0 0 0 0 0 127 0" result="hardAlpha"/>
<feOffset dy="1.40278"/>
<feGaussianBlur stdDeviation="3.50694"/>
<feComposite in2="hardAlpha" operator="out"/>
<feColorMatrix type="matrix" values="0 0 0 0 0.0823529 0 0 0 0 0.0823529 0 0 0 0 0.0823529 0 0 0 0.25 0"/>
<feBlend mode="normal" in2="BackgroundImageFix" result="effect1_dropShadow_7449_107164"/>
<feBlend mode="normal" in="SourceGraphic" in2="effect1_dropShadow_7449_107164" result="shape"/>
</filter>
</defs>
</svg>
