<svg width="167" height="88" viewBox="0 0 167 88" fill="none" xmlns="http://www.w3.org/2000/svg">
<g clip-path="url(#clip0_7206_24564)">
<path d="M107.642 9.09163C101.97 3.41908 94.4295 0.296021 86.4086 0.296021C78.3878 0.296021 70.8444 3.41908 65.1749 9.09163C53.4664 20.8001 53.4664 39.8507 65.1869 51.5712L86.4086 72.3275L107.642 51.5592C119.351 39.8507 119.351 20.8001 107.642 9.09163ZM105.531 49.4241L86.4086 68.1294L67.2979 49.4361C56.7606 38.8988 56.7606 21.752 67.2979 11.2147C72.4029 6.10971 79.1896 3.29896 86.4086 3.29896C93.6277 3.29896 100.414 6.10971 105.519 11.2147C116.057 21.752 116.057 38.8988 105.531 49.4241ZM97.3573 34.7998L99.4804 36.9229C95.988 40.4153 91.3485 42.3372 86.4086 42.3372C81.4688 42.3372 76.8263 40.4153 73.3338 36.9229L75.4569 34.7998C78.3818 37.7246 82.2736 39.3342 86.4086 39.3342C90.5437 39.3342 94.4325 37.7246 97.3573 34.7998ZM74.3969 24.3195C74.3969 22.6619 75.7422 21.3166 77.3998 21.3166C79.0574 21.3166 80.4028 22.6619 80.4028 24.3195C80.4028 25.9771 79.0574 27.3225 77.3998 27.3225C75.7422 27.3225 74.3969 25.9771 74.3969 24.3195ZM92.4145 24.3195C92.4145 22.6619 93.7598 21.3166 95.4174 21.3166C97.0751 21.3166 98.4204 22.6619 98.4204 24.3195C98.4204 25.9771 97.0751 27.3225 95.4174 27.3225C93.7598 27.3225 92.4145 25.9771 92.4145 24.3195Z" fill="#FF43AD"/>
</g>
<g clip-path="url(#clip1_7206_24564)">
<path d="M58.202 24.1759C52.5294 18.5033 44.9891 15.3802 36.9682 15.3802C28.9474 15.3802 21.404 18.5033 15.7344 24.1759C4.02598 35.8843 4.02598 54.935 15.7464 66.6554L36.9682 87.4117L58.202 66.6434C69.9104 54.9349 69.9104 35.8843 58.202 24.1759ZM56.0909 64.5083L36.9682 83.2136L17.8575 64.5203C7.3202 53.983 7.3202 36.8362 17.8575 26.2989C22.9625 21.1939 29.7491 18.3832 36.9682 18.3832C44.1873 18.3832 50.9739 21.1939 56.0789 26.2989C66.6162 36.8362 66.6162 53.983 56.0909 64.5083ZM47.9169 49.884L50.04 52.0071C46.5476 55.4995 41.908 57.4214 36.9682 57.4214C32.0284 57.4214 27.3858 55.4995 23.8934 52.0071L26.0165 49.884C28.9414 52.8089 32.8332 54.4184 36.9682 54.4184C41.1032 54.4184 44.9921 52.8089 47.9169 49.884ZM24.9565 39.4038C24.9565 37.7461 26.3018 36.4008 27.9594 36.4008C29.617 36.4008 30.9623 37.7461 30.9623 39.4038C30.9623 41.0614 29.617 42.4067 27.9594 42.4067C26.3018 42.4067 24.9565 41.0614 24.9565 39.4038ZM42.9741 39.4038C42.9741 37.7461 44.3194 36.4008 45.977 36.4008C47.6346 36.4008 48.98 37.7461 48.98 39.4038C48.98 41.0614 47.6346 42.4067 45.977 42.4067C44.3194 42.4067 42.9741 41.0614 42.9741 39.4038Z" fill="#00AAFF"/>
</g>
<g clip-path="url(#clip2_7206_24564)">
<path d="M151.222 24.1759C145.549 18.5033 138.009 15.3802 129.988 15.3802C121.967 15.3802 114.424 18.5033 108.754 24.1759C97.0455 35.8843 97.0455 54.935 108.766 66.6554L129.988 87.4117L151.222 66.6434C162.93 54.9349 162.93 35.8843 151.222 24.1759ZM149.11 64.5083L129.988 83.2136L110.877 64.5203C100.34 53.983 100.34 36.8362 110.877 26.2989C115.982 21.1939 122.769 18.3832 129.988 18.3832C137.207 18.3832 143.993 21.1939 149.098 26.2989C159.636 36.8362 159.636 53.983 149.11 64.5083ZM140.936 49.884L143.06 52.0071C139.567 55.4995 134.928 57.4214 129.988 57.4214C125.048 57.4214 120.405 55.4995 116.913 52.0071L119.036 49.884C121.961 52.8089 125.853 54.4184 129.988 54.4184C134.123 54.4184 138.012 52.8089 140.936 49.884ZM117.976 39.4038C117.976 37.7461 119.321 36.4008 120.979 36.4008C122.637 36.4008 123.982 37.7461 123.982 39.4038C123.982 41.0614 122.637 42.4067 120.979 42.4067C119.321 42.4067 117.976 41.0614 117.976 39.4038ZM135.994 39.4038C135.994 37.7461 137.339 36.4008 138.997 36.4008C140.654 36.4008 141.999 37.7461 141.999 39.4038C141.999 41.0614 140.654 42.4067 138.997 42.4067C137.339 42.4067 135.994 41.0614 135.994 39.4038Z" fill="#0EDF8A"/>
</g>
<defs>
<clipPath id="clip0_7206_24564">
<rect width="72.0705" height="72.0705" fill="white" transform="translate(50.3745 0.296021)"/>
</clipPath>
<clipPath id="clip1_7206_24564">
<rect width="72.0705" height="72.0705" fill="white" transform="translate(0.930176 15.3802)"/>
</clipPath>
<clipPath id="clip2_7206_24564">
<rect width="72.0705" height="72.0705" fill="white" transform="translate(93.9507 15.3802)"/>
</clipPath>
</defs>
</svg>
