<svg width="25" height="26" viewBox="0 0 25 26" fill="none" xmlns="http://www.w3.org/2000/svg">
<rect width="25" height="26" rx="8" fill="white"/>
<path d="M13.22 18.176C11.9507 18.176 10.8733 17.936 9.988 17.456C9.11333 16.976 8.44667 16.304 7.988 15.44C7.52933 14.576 7.3 13.5627 7.3 12.4C7.3 11.2053 7.53467 10.1707 8.004 9.296C8.484 8.42133 9.172 7.744 10.068 7.264C10.964 6.784 12.0413 6.544 13.3 6.544C14.0893 6.544 14.836 6.656 15.54 6.88C16.2547 7.104 16.836 7.40267 17.284 7.776L16.484 9.712C15.9933 9.34933 15.492 9.09333 14.98 8.944C14.468 8.784 13.9133 8.704 13.316 8.704C12.1747 8.704 11.316 9.024 10.74 9.664C10.1747 10.2933 9.892 11.2053 9.892 12.4C9.892 13.6053 10.18 14.5173 10.756 15.136C11.3427 15.7547 12.2067 16.064 13.348 16.064C13.956 16.064 14.596 15.968 15.268 15.776V13.568H12.836V11.776H17.316V17.312C16.7613 17.5893 16.1213 17.8027 15.396 17.952C14.6707 18.1013 13.9453 18.176 13.22 18.176Z" fill="#7A28CB"/>
</svg>
