          <svg
            xmlns="http://www.w3.org/2000/svg"
            width="28"
            height="28.5"
            viewBox="0 0 49 48"
            fill="none"
          >
            <rect
              x="0.5"
              width="48"
              height="48"
              rx="24"
              fill="url(#paint0_linear_6250_23674)"
            />
            <path
              d="M19.5054 24.0614C19.5054 21.8504 21.2968 20.0576 23.5072 20.0576C25.7176 20.0576 27.5099 21.8504 27.5099 24.0614C27.5099 26.2725 25.7176 28.0653 23.5072 28.0653C21.2968 28.0653 19.5054 26.2725 19.5054 24.0614ZM17.3416 24.0614C17.3416 27.4677 20.102 30.2288 23.5072 30.2288C26.9124 30.2288 29.6728 27.4677 29.6728 24.0614C29.6728 20.6552 26.9124 17.8941 23.5072 17.8941C20.102 17.8941 17.3416 20.6552 17.3416 24.0614ZM28.476 17.6496C28.4759 17.9346 28.5603 18.2133 28.7185 18.4504C28.8767 18.6875 29.1017 18.8723 29.3649 18.9815C29.6281 19.0907 29.9178 19.1194 30.1974 19.0639C30.4769 19.0084 30.7337 18.8712 30.9353 18.6697C31.1369 18.4682 31.2742 18.2115 31.3299 17.9319C31.3856 17.6523 31.3572 17.3625 31.2482 17.0991C31.1393 16.8357 30.9547 16.6106 30.7178 16.4521C30.4809 16.2936 30.2024 16.209 29.9174 16.2089H29.9168C29.5348 16.2091 29.1685 16.3609 28.8984 16.631C28.6282 16.9011 28.4763 17.2675 28.476 17.6496ZM18.6563 33.8378C17.4856 33.7845 16.8494 33.5895 16.4265 33.4247C15.8659 33.2064 15.4659 32.9464 15.0454 32.5263C14.6248 32.1062 14.3645 31.7065 14.1473 31.1457C13.9824 30.7229 13.7874 30.0863 13.7342 28.9153C13.676 27.6493 13.6644 27.269 13.6644 24.0615C13.6644 20.8541 13.677 20.4749 13.7342 19.2078C13.7875 18.0368 13.984 17.4014 14.1473 16.9774C14.3655 16.4166 14.6254 16.0165 15.0454 15.5958C15.4654 15.1752 15.865 14.9148 16.4265 14.6975C16.8492 14.5326 17.4856 14.3375 18.6563 14.2843C19.9219 14.2261 20.3021 14.2144 23.5072 14.2144C26.7123 14.2144 27.0928 14.227 28.3595 14.2843C29.5302 14.3376 30.1654 14.5341 30.5893 14.6975C31.1499 14.9148 31.5499 15.1758 31.9705 15.5958C32.391 16.0159 32.6503 16.4166 32.8686 16.9774C33.0334 17.4001 33.2284 18.0368 33.2816 19.2078C33.3398 20.4749 33.3515 20.8541 33.3515 24.0615C33.3515 27.269 33.3398 27.6482 33.2816 28.9153C33.2283 30.0863 33.0324 30.7228 32.8686 31.1457C32.6503 31.7065 32.3904 32.1066 31.9705 32.5263C31.5505 32.946 31.1499 33.2064 30.5893 33.4247C30.1667 33.5896 29.5302 33.7846 28.3595 33.8378C27.0939 33.8961 26.7137 33.9077 23.5072 33.9077C20.3007 33.9077 19.9216 33.8961 18.6563 33.8378ZM18.5569 12.1235C17.2786 12.1817 16.4052 12.3845 15.6424 12.6814C14.8524 12.988 14.1837 13.3993 13.5154 14.0667C12.8471 14.7342 12.4369 15.4042 12.1304 16.1944C11.8336 16.9579 11.6309 17.8311 11.5727 19.1097C11.5135 20.3903 11.5 20.7997 11.5 24.0614C11.5 27.3232 11.5135 27.7326 11.5727 29.0132C11.6309 30.2919 11.8336 31.165 12.1304 31.9285C12.4369 32.7183 12.8472 33.389 13.5154 34.0561C14.1836 34.7233 14.8524 35.134 15.6424 35.4415C16.4066 35.7384 17.2786 35.9411 18.5569 35.9994C19.8378 36.0576 20.2464 36.0721 23.5072 36.0721C26.768 36.0721 27.1773 36.0586 28.4575 35.9994C29.7359 35.9411 30.6087 35.7384 31.372 35.4415C32.1615 35.134 32.8307 34.7236 33.499 34.0561C34.1673 33.3887 34.5766 32.7183 34.884 31.9285C35.1808 31.165 35.3844 30.2918 35.4417 29.0132C35.4999 27.7316 35.5134 27.3232 35.5134 24.0614C35.5134 20.7997 35.4999 20.3903 35.4417 19.1097C35.3835 17.831 35.1808 16.9574 34.884 16.1944C34.5766 15.4046 34.1662 14.7352 33.499 14.0667C32.8318 13.3983 32.1615 12.988 31.373 12.6814C30.6087 12.3845 29.7358 12.1808 28.4585 12.1235C27.1782 12.0653 26.7689 12.0508 23.5082 12.0508C20.2474 12.0508 19.8378 12.0643 18.5569 12.1235Z"
              fill="white"
            />
            <defs>
              <linearGradient
                id="paint0_linear_6250_23674"
                x1="47.5774"
                y1="48"
                x2="-0.422559"
                y2="-1.29202e-06"
                gradientUnits="userSpaceOnUse"
              >
                <stop stop-color="#FBE18A" />
                <stop offset="0.21" stop-color="#FCBB45" />
                <stop offset="0.38" stop-color="#F75274" />
                <stop offset="0.52" stop-color="#D53692" />
                <stop offset="0.74" stop-color="#8F39CE" />
                <stop offset="1" stop-color="#5B4FE9" />
              </linearGradient>
            </defs>
          </svg>