          <svg
            xmlns="http://www.w3.org/2000/svg"
            width="28"
            height="28.5"
            viewBox="0 0 49 48"
            fill="none"
          >
            <rect x="0.5" width="48" height="48" rx="24" fill="#151515" />
            <path
              fill-rule="evenodd"
              clip-rule="evenodd"
              d="M29.6841 20.7376C31.2918 21.8815 33.217 22.4927 35.1894 22.4853V18.5727C34.8017 18.5738 34.415 18.5322 34.0363 18.4488V21.5658C32.0594 21.5693 30.1313 20.9511 28.5244 19.7986V27.8455C28.5196 29.1659 28.1578 30.4604 27.4775 31.5917C26.7971 32.723 25.8236 33.6489 24.6601 34.2713C23.4966 34.8937 22.1865 35.1893 20.8687 35.1268C19.5509 35.0644 18.2746 34.6461 17.175 33.9165C18.1921 34.9464 19.4916 35.6511 20.9091 35.9414C22.3265 36.2316 23.7982 36.0943 25.1376 35.5469C26.4771 34.9995 27.6241 34.0665 28.4334 32.8662C29.2428 31.6659 29.6781 30.2521 29.6841 28.804V20.7376ZM31.111 16.7468C30.2934 15.8599 29.7918 14.7274 29.6841 13.5255V13.0168H28.5896C28.7249 13.7808 29.0193 14.5078 29.4537 15.1504C29.8881 15.793 30.4528 16.3369 31.111 16.7468ZM19.7094 30.819C19.3301 30.3225 19.0976 29.7293 19.0384 29.1071C18.9793 28.4848 19.0959 27.8584 19.3749 27.2992C19.6539 26.74 20.0842 26.2704 20.6167 25.9439C21.1493 25.6174 21.7627 25.447 22.3872 25.4523C22.732 25.4522 23.0747 25.505 23.4035 25.6088V21.5658C23.0192 21.5149 22.6315 21.4931 22.2438 21.5006V24.6437C21.4432 24.3904 20.5766 24.448 19.8165 24.805C19.0564 25.1621 18.4584 25.7924 18.1414 26.5707C17.8245 27.349 17.8118 28.2181 18.106 29.0053C18.4002 29.7924 18.9796 30.44 19.729 30.819H19.7094Z"
              fill="#EE1D52"
            />
            <path
              fill-rule="evenodd"
              clip-rule="evenodd"
              d="M28.5238 19.7725C30.1307 20.9251 32.0588 21.5432 34.0356 21.5397V18.4227C32.9093 18.1843 31.8861 17.5982 31.1103 16.7468C30.4521 16.3369 29.8875 15.793 29.4531 15.1504C29.0187 14.5078 28.7243 13.7808 28.589 13.0168H25.7093V28.804C25.7066 29.5028 25.4854 30.1833 25.0766 30.7498C24.6678 31.3163 24.0921 31.7404 23.4301 31.9627C22.7682 32.185 22.0534 32.1942 21.386 31.9891C20.7185 31.784 20.1321 31.3748 19.7088 30.819C19.0381 30.4803 18.501 29.9253 18.1841 29.2435C17.8672 28.5618 17.789 27.793 17.9622 27.0614C18.1353 26.3297 18.5497 25.6777 19.1385 25.2107C19.7273 24.7437 20.4561 24.4888 21.2073 24.4872C21.552 24.4883 21.8946 24.541 22.2237 24.6437V21.5006C20.8018 21.5348 19.4208 21.9837 18.2503 22.7923C17.0798 23.601 16.1706 24.7341 15.6344 26.0526C15.0982 27.3711 14.9583 28.8176 15.2318 30.2146C15.5054 31.6115 16.1806 32.8981 17.1744 33.9165C18.2742 34.6514 19.5525 35.0739 20.8733 35.1391C22.194 35.2043 23.5077 34.9097 24.6743 34.2867C25.841 33.6637 26.817 32.7356 27.4984 31.6013C28.1797 30.467 28.5409 29.169 28.5434 27.8455L28.5238 19.7725Z"
              fill="white"
            />
            <path
              fill-rule="evenodd"
              clip-rule="evenodd"
              d="M34.0361 18.4224V17.5812C33.0017 17.5856 31.9873 17.2961 31.1108 16.7465C31.8846 17.6003 32.9086 18.1869 34.0361 18.4224ZM28.5894 13.0165C28.5894 12.8665 28.5438 12.71 28.5243 12.56V12.0514H24.55V27.8451C24.5466 28.7295 24.1927 29.5763 23.5661 30.1998C22.9395 30.8233 22.0913 31.1725 21.2077 31.1708C20.6875 31.1734 20.174 31.0527 19.7093 30.8187C20.1325 31.3744 20.719 31.7836 21.3864 31.9887C22.0538 32.1939 22.7687 32.1846 23.4306 31.9624C24.0925 31.7401 24.6683 31.3159 25.077 30.7494C25.4858 30.1829 25.707 29.5025 25.7097 28.8037V13.0165H28.5894ZM22.2241 21.4937V20.6003C20.5887 20.378 18.9263 20.7166 17.5078 21.5609C16.0893 22.4053 14.9984 23.7056 14.4127 25.25C13.8271 26.7943 13.7814 28.4917 14.283 30.0654C14.7846 31.6392 15.8039 32.9965 17.1749 33.9161C16.1885 32.8954 15.5206 31.6093 15.2526 30.2149C14.9846 28.8205 15.1282 27.3781 15.6658 26.064C16.2034 24.75 17.1117 23.621 18.2799 22.8152C19.448 22.0094 20.8254 21.5615 22.2437 21.5263L22.2241 21.4937Z"
              fill="#69C9D0"
            />
          </svg>