<svg width="43" height="43" viewBox="0 0 43 43" fill="none" xmlns="http://www.w3.org/2000/svg">
<path d="M12.7711 12.7712C11.8511 13.6913 12.1174 14.1271 15.846 17.9041L19.4052 21.4875L15.846 25.0708C12.1174 28.8478 11.8511 29.2836 12.7711 30.2037C13.6912 31.1237 14.127 30.8574 17.904 27.1288L21.4874 23.5697L25.0707 27.1288C28.8477 30.8574 29.2835 31.1237 30.2036 30.2037C31.1236 29.2836 30.8573 28.8478 27.1287 25.0708L23.5696 21.4875L27.1287 17.9041C30.8573 14.1271 31.1236 13.6913 30.2036 12.7712C29.2835 11.8512 28.8477 12.1175 25.0707 15.8461L21.4874 19.4053L17.904 15.8461C14.127 12.1175 13.6912 11.8512 12.7711 12.7712Z" fill="white"/>
</svg>
