<svg width="25" height="26" viewBox="0 0 25 26" fill="none" xmlns="http://www.w3.org/2000/svg">
<rect width="25" height="26" rx="8" fill="#7A28CB"/>
<path d="M13.156 18.16C11.908 18.16 10.852 17.9253 9.988 17.456C9.13467 16.9867 8.484 16.32 8.036 15.456C7.588 14.592 7.364 13.568 7.364 12.384C7.364 11.1893 7.59333 10.16 8.052 9.296C8.51067 8.42133 9.172 7.74933 10.036 7.28C10.9 6.8 11.9347 6.56 13.14 6.56C13.9293 6.56 14.6707 6.67733 15.364 6.912C16.0573 7.136 16.6333 7.45067 17.092 7.856L16.404 9.456C15.9027 9.06133 15.3907 8.77867 14.868 8.608C14.3453 8.43733 13.7693 8.352 13.14 8.352C11.9453 8.352 11.0387 8.69867 10.42 9.392C9.812 10.0853 9.508 11.0827 9.508 12.384C9.508 13.696 9.82267 14.6933 10.452 15.376C11.0813 16.0587 12.0147 16.4 13.252 16.4C13.604 16.4 13.9613 16.3733 14.324 16.32C14.6973 16.256 15.0653 16.1653 15.428 16.048V13.424H12.836V11.904H17.14V17.328C16.6173 17.584 15.9987 17.7867 15.284 17.936C14.5693 18.0853 13.86 18.16 13.156 18.16Z" fill="white"/>
</svg>
